jomhuria-latin.ufo
<glyph name="numbersign" format="1">
  <advance width="1275"/>
  <unicode hex="0023"/>
  <outline>
    <contour>
      <point x="511" y="546" type="line"/>
      <point x="561" y="740" type="line"/>
      <point x="781" y="740" type="line"/>
      <point x="732" y="546" type="line"/>
    </contour>
    <contour>
      <point x="1250" y="942" type="line"/>
      <point x="1033" y="942" type="line"/>
      <point x="1120" y="1289" type="line"/>
      <point x="920" y="1289" type="line"/>
      <point x="832" y="942" type="line"/>
      <point x="612" y="942" type="line"/>
      <point x="699" y="1289" type="line"/>
      <point x="498" y="1289" type="line"/>
      <point x="411" y="942" type="line"/>
      <point x="205" y="942" type="line"/>
      <point x="154" y="740" type="line"/>
      <point x="360" y="740" type="line"/>
      <point x="311" y="546" type="line"/>
      <point x="105" y="546" type="line"/>
      <point x="54" y="344" type="line"/>
      <point x="260" y="344" type="line"/>
      <point x="173" y="0" type="line"/>
      <point x="373" y="0" type="line"/>
      <point x="460" y="344" type="line"/>
      <point x="681" y="344" type="line"/>
      <point x="594" y="0" type="line"/>
      <point x="794" y="0" type="line"/>
      <point x="881" y="344" type="line"/>
      <point x="1098" y="344" type="line"/>
      <point x="1149" y="546" type="line"/>
      <point x="932" y="546" type="line"/>
      <point x="982" y="740" type="line"/>
      <point x="1199" y="740" type="line"/>
    </contour>
  </outline>
</glyph>
<glyph name="dollar" format="1">
  <advance width="834"/>
  <unicode hex="0024"/>
  <outline>
    <contour>
      <point x="513" y="738" type="curve" smooth="yes"/>
      <point x="443" y="781"/>
      <point x="361" y="807"/>
      <point x="361" y="879" type="curve" smooth="yes"/>
      <point x="361" y="936"/>
      <point x="415" y="959"/>
      <point x="489" y="959" type="curve" smooth="yes"/>
      <point x="551" y="959"/>
      <point x="642" y="934"/>
      <point x="698" y="868" type="curve"/>
      <point x="748" y="1061" type="line"/>
      <point x="748" y="1061"/>
      <point x="667" y="1185"/>
      <point x="437" y="1185" type="curve" smooth="yes"/>
      <point x="184" y="1185"/>
      <point x="34" y="1077"/>
      <point x="34" y="828" type="curve" smooth="yes"/>
      <point x="34" y="595"/>
      <point x="210" y="503"/>
      <point x="295" y="460" type="curve" smooth="yes"/>
      <point x="414" y="402"/>
      <point x="475" y="365"/>
      <point x="475" y="296" type="curve" smooth="yes"/>
      <point x="475" y="233"/>
      <point x="425" y="217"/>
      <point x="324" y="217" type="curve" smooth="yes"/>
      <point x="208" y="217"/>
      <point x="113" y="289"/>
      <point x="65" y="353" type="curve"/>
      <point x="40" y="110" type="line"/>
      <point x="82" y="64"/>
      <point x="198" y="-21"/>
      <point x="416" y="-21" type="curve" smooth="yes"/>
      <point x="663" y="-21"/>
      <point x="796" y="120"/>
      <point x="796" y="384" type="curve" smooth="yes"/>
      <point x="796" y="549"/>
      <point x="705" y="656"/>
    </contour>
    <contour>
      <point x="282" y="1097" type="line"/>
      <point x="533" y="1097" type="line"/>
      <point x="533" y="1340" type="line"/>
      <point x="282" y="1340" type="line"/>
    </contour>
    <contour>
      <point x="282" y="-187" type="line"/>
      <point x="533" y="-187" type="line"/>
      <point x="533" y="56" type="line"/>
      <point x="282" y="56" type="line"/>
    </contour>
  </outline>
</glyph>
<glyph name="ampersand" format="1">
  <advance width="1133"/>
  <unicode hex="0026"/>
  <outline>
    <contour>
      <point x="1130" y="160" type="line"/>
      <point x="1083" y="170"/>
      <point x="1025" y="204"/>
      <point x="989" y="234" type="curve"/>
      <point x="1035" y="294"/>
      <point x="1088" y="364"/>
      <point x="1088" y="531" type="curve"/>
      <point x="821" y="539" type="line"/>
      <point x="833" y="493"/>
      <point x="816" y="428"/>
      <point x="801" y="388" type="curve"/>
      <point x="755" y="426"/>
      <point x="692" y="505"/>
      <point x="674" y="539" type="curve"/>
      <point x="840" y="642"/>
      <point x="922" y="754"/>
      <point x="922" y="905" type="curve" smooth="yes"/>
      <point x="922" y="1039"/>
      <point x="833" y="1195"/>
      <point x="558" y="1195" type="curve" smooth="yes"/>
      <point x="250" y="1195"/>
      <point x="147" y="1080"/>
      <point x="147" y="886" type="curve" smooth="yes"/>
      <point x="147" y="768"/>
      <point x="226" y="688"/>
      <point x="248" y="638" type="curve"/>
      <point x="144" y="596"/>
      <point x="13" y="497"/>
      <point x="13" y="349" type="curve" smooth="yes"/>
      <point x="13" y="140"/>
      <point x="166" y="-34"/>
      <point x="443" y="-34" type="curve" smooth="yes"/>
      <point x="517" y="-34"/>
      <point x="707" y="-27"/>
      <point x="784" y="36" type="curve"/>
      <point x="847" y="-7"/>
      <point x="929" y="-18"/>
      <point x="1010" y="-18" type="curve" smooth="yes"/>
      <point x="1019" y="-18"/>
      <point x="1035" y="-17"/>
      <point x="1053" y="-15" type="curve"/>
    </contour>
    <contour>
      <point x="480" y="891" type="curve" smooth="yes"/>
      <point x="480" y="1019"/>
      <point x="515" y="1055"/>
      <point x="553" y="1055" type="curve" smooth="yes"/>
      <point x="627" y="1055"/>
      <point x="638" y="968"/>
      <point x="638" y="909" type="curve" smooth="yes"/>
      <point x="638" y="831"/>
      <point x="636" y="772"/>
      <point x="554" y="704" type="curve"/>
      <point x="515" y="749"/>
      <point x="480" y="804"/>
    </contour>
    <contour>
      <point x="500" y="136" type="curve" smooth="yes"/>
      <point x="402" y="136"/>
      <point x="310" y="218"/>
      <point x="310" y="343" type="curve" smooth="yes"/>
      <point x="310" y="414"/>
      <point x="321" y="439"/>
      <point x="352" y="457" type="curve"/>
      <point x="421" y="339"/>
      <point x="512" y="246"/>
      <point x="612" y="176" type="curve"/>
      <point x="563" y="153"/>
      <point x="540" y="136"/>
    </contour>
  </outline>
</glyph>
<glyph name="parenleft" format="1">
  <advance width="592"/>
  <unicode hex="0028"/>
  <outline>
    <contour>
      <point x="363" y="569" type="curve"/>
      <point x="363" y="1011"/>
      <point x="459" y="1246"/>
      <point x="571" y="1418" type="curve"/>
      <point x="383" y="1418" type="line"/>
      <point x="277" y="1303"/>
      <point x="90" y="1046"/>
      <point x="90" y="569" type="curve" smooth="yes"/>
      <point x="90" y="92"/>
      <point x="277" y="-165"/>
      <point x="383" y="-280" type="curve"/>
      <point x="571" y="-280" type="line"/>
      <point x="459" y="-108"/>
      <point x="363" y="127"/>
    </contour>
  </outline>
</glyph>
<glyph name="plus" format="1">
  <advance width="1148"/>
  <unicode hex="002B"/>
  <outline>
    <contour>
      <point x="685" y="615" type="line"/>
      <point x="685" y="1006" type="line"/>
      <point x="463" y="1006" type="line"/>
      <point x="463" y="615" type="line"/>
      <point x="110" y="615" type="line"/>
      <point x="110" y="414" type="line"/>
      <point x="463" y="414" type="line"/>
      <point x="463" y="20" type="line"/>
      <point x="685" y="20" type="line"/>
      <point x="685" y="414" type="line"/>
      <point x="1038" y="414" type="line"/>
      <point x="1038" y="615" type="line"/>
    </contour>
  </outline>
</glyph>
<glyph name="hyphen" format="1">
  <advance width="758"/>
  <unicode hex="002D"/>
  <outline>
    <contour>
      <point x="80" y="715" type="line"/>
      <point x="80" y="464" type="line"/>
      <point x="678" y="464" type="line"/>
      <point x="678" y="715" type="line"/>
    </contour>
  </outline>
</glyph>
<glyph name="two" format="1">
  <advance width="990"/>
  <unicode hex="0032"/>
  <outline>
    <contour>
      <point x="212" y="885" type="line"/>
      <point x="231" y="956"/>
      <point x="286" y="1008"/>
      <point x="429" y="1008" type="curve" smooth="yes"/>
      <point x="521" y="1008"/>
      <point x="567" y="913"/>
      <point x="567" y="836" type="curve" smooth="yes"/>
      <point x="567" y="719"/>
      <point x="475" y="613"/>
      <point x="267" y="442" type="curve" smooth="yes"/>
      <point x="116" y="324"/>
      <point x="72" y="221"/>
      <point x="72" y="147" type="curve" smooth="yes"/>
      <point x="72" y="109"/>
      <point x="73" y="23"/>
      <point x="77" y="12" type="curve"/>
      <point x="83" y="0" type="line"/>
      <point x="936" y="0" type="line"/>
      <point x="936" y="276" type="line"/>
      <point x="336" y="231" type="line"/>
      <point x="521" y="456"/>
      <point x="916" y="537"/>
      <point x="916" y="847" type="curve" smooth="yes"/>
      <point x="916" y="1110"/>
      <point x="714" y="1189"/>
      <point x="491" y="1189" type="curve" smooth="yes"/>
      <point x="225" y="1189"/>
      <point x="119" y="1092"/>
      <point x="74" y="1024" type="curve"/>
    </contour>
    <contour>
      <point x="333" y="1056" type="line"/>
      <point x="333" y="1056"/>
      <point x="74" y="1024"/>
      <point x="74" y="1024" type="curve"/>
      <point x="74" y="1024"/>
      <point x="89" y="789"/>
      <point x="89" y="789" type="curve"/>
      <point x="271" y="788" type="line"/>
    </contour>
  </outline>
</glyph>
<glyph name="six" format="1">
  <advance width="1080"/>
  <unicode hex="0036"/>
  <outline>
    <contour>
      <point x="933" y="1099" type="line"/>
      <point x="932" y="1105" type="line"/>
      <point x="861" y="1160"/>
      <point x="772" y="1189"/>
      <point x="605" y="1189" type="curve" smooth="yes"/>
      <point x="293" y="1189"/>
      <point x="68" y="931"/>
      <point x="68" y="532" type="curve" smooth="yes"/>
      <point x="68" y="224"/>
      <point x="255" y="-20"/>
      <point x="535" y="-20" type="curve" smooth="yes"/>
      <point x="803" y="-20"/>
      <point x="1009" y="165"/>
      <point x="1009" y="434" type="curve" smooth="yes"/>
      <point x="1009" y="659"/>
      <point x="858" y="812"/>
      <point x="659" y="812" type="curve" smooth="yes"/>
      <point x="592" y="812"/>
      <point x="509" y="810"/>
      <point x="456" y="770" type="curve"/>
      <point x="456" y="812" type="line" smooth="yes"/>
      <point x="456" y="918"/>
      <point x="577" y="988"/>
      <point x="688" y="988" type="curve" smooth="yes"/>
      <point x="720" y="988"/>
      <point x="813" y="988"/>
      <point x="876" y="954" type="curve"/>
    </contour>
    <contour>
      <point x="632" y="265" type="line"/>
      <point x="632" y="220"/>
      <point x="585" y="181"/>
      <point x="538" y="181" type="curve" smooth="yes"/>
      <point x="493" y="181"/>
      <point x="445" y="218"/>
      <point x="445" y="265" type="curve" smooth="yes"/>
      <point x="445" y="562" type="line"/>
      <point x="450" y="602"/>
      <point x="498" y="613"/>
      <point x="539" y="613" type="curve" smooth="yes"/>
      <point x="584" y="613"/>
      <point x="632" y="576"/>
      <point x="632" y="529" type="curve"/>
    </contour>
  </outline>
</glyph>
<glyph name="equal" format="1">
  <advance width="1148"/>
  <unicode hex="003D"/>
  <outline>
    <contour>
      <point x="160" y="818" type="line"/>
      <point x="160" y="617" type="line"/>
      <point x="988" y="617" type="line"/>
      <point x="988" y="818" type="line"/>
    </contour>
    <contour>
      <point x="160" y="414" type="line"/>
      <point x="160" y="213" type="line"/>
      <point x="988" y="213" type="line"/>
      <point x="988" y="414" type="line"/>
    </contour>
  </outline>
</glyph>
<glyph name="greater" format="1">
  <advance width="914"/>
  <unicode hex="003E"/>
  <outline>
    <contour>
      <point x="571" y="494" type="line"/>
      <point x="76" y="0" type="line"/>
      <point x="393" y="0" type="line"/>
      <point x="888" y="494" type="line"/>
      <point x="392" y="986" type="line"/>
      <point x="78" y="986" type="line"/>
    </contour>
  </outline>
</glyph>
<glyph name="question" format="1">
  <advance width="848"/>
  <unicode hex="003F"/>
  <outline>
    <contour>
      <point x="198" y="913" type="line"/>
      <point x="213" y="965"/>
      <point x="266" y="995"/>
      <point x="311" y="995" type="curve" smooth="yes"/>
      <point x="371" y="995"/>
      <point x="416" y="965"/>
      <point x="416" y="888" type="curve" smooth="yes"/>
      <point x="416" y="817"/>
      <point x="309" y="643"/>
      <point x="309" y="571" type="curve" smooth="yes"/>
      <point x="309" y="499"/>
      <point x="326" y="471"/>
      <point x="331" y="462" type="curve"/>
      <point x="502" y="461" type="line"/>
      <point x="498" y="474" type="line" smooth="yes"/>
      <point x="496" y="479"/>
      <point x="495" y="485"/>
      <point x="495" y="491" type="curve" smooth="yes"/>
      <point x="495" y="587"/>
      <point x="758" y="752"/>
      <point x="758" y="907" type="curve" smooth="yes"/>
      <point x="758" y="1066"/>
      <point x="672" y="1189"/>
      <point x="404" y="1189" type="curve" smooth="yes"/>
      <point x="198" y="1189"/>
      <point x="108" y="1093"/>
      <point x="62" y="995" type="curve"/>
    </contour>
    <contour>
      <point x="399" y="345" type="line"/>
      <point x="235" y="181" type="line"/>
      <point x="235" y="146" type="line"/>
      <point x="399" y="-19" type="line"/>
      <point x="437" y="-19" type="line"/>
      <point x="608" y="146" type="line"/>
      <point x="608" y="181" type="line"/>
      <point x="437" y="345" type="line"/>
    </contour>
  </outline>
</glyph>
<glyph name="A" format="1">
  <advance width="981"/>
  <unicode hex="0041"/>
  <outline>
    <contour>
      <point x="642" y="0" type="line"/>
      <point x="1009" y="0" type="line"/>
      <point x="675" y="1172" type="line"/>
      <point x="262" y="1172" type="line"/>
      <point x="286" y="1091" type="line"/>
      <point x="-19" y="0" type="line"/>
      <point x="275" y="0" type="line"/>
      <point x="442" y="828" type="line"/>
    </contour>
    <contour>
      <point x="256" y="187" type="line"/>
      <point x="617" y="187" type="line"/>
      <point x="617" y="391" type="line"/>
      <point x="256" y="391" type="line"/>
    </contour>
  </outline>
</glyph>
<glyph name="B" format="1">
  <advance width="981"/>
  <unicode hex="0042"/>
  <outline>
    <contour>
      <point x="719" y="621" type="curve"/>
      <point x="847" y="647"/>
      <point x="910" y="762"/>
      <point x="910" y="898" type="curve" smooth="yes"/>
      <point x="910" y="1074"/>
      <point x="819" y="1181"/>
      <point x="501" y="1181" type="curve" smooth="yes"/>
      <point x="420" y="1181"/>
      <point x="357" y="1172"/>
      <point x="240" y="1172" type="curve" smooth="yes"/>
      <point x="67" y="1172" type="line"/>
      <point x="67" y="0" type="line"/>
      <point x="163" y="0" type="line"/>
      <point x="318" y="-3"/>
      <point x="406" y="-9"/>
      <point x="543" y="-9" type="curve" smooth="yes"/>
      <point x="841" y="-9"/>
      <point x="955" y="146"/>
      <point x="955" y="344" type="curve" smooth="yes"/>
      <point x="955" y="554"/>
      <point x="833" y="611"/>
    </contour>
    <contour>
      <point x="470" y="979" type="line" smooth="yes"/>
      <point x="545" y="979"/>
      <point x="598" y="957"/>
      <point x="598" y="872" type="curve" smooth="yes"/>
      <point x="598" y="847" type="line" smooth="yes"/>
      <point x="598" y="765"/>
      <point x="560" y="690"/>
      <point x="478" y="690" type="curve" smooth="yes"/>
      <point x="397" y="690" type="line"/>
      <point x="397" y="979" type="line"/>
    </contour>
    <contour>
      <point x="612" y="331" type="line" smooth="yes"/>
      <point x="612" y="268"/>
      <point x="579" y="196"/>
      <point x="475" y="196" type="curve" smooth="yes"/>
      <point x="397" y="196" type="line"/>
      <point x="397" y="521" type="line"/>
      <point x="475" y="521" type="line" smooth="yes"/>
      <point x="530" y="521"/>
      <point x="612" y="498"/>
      <point x="612" y="401" type="curve" smooth="yes"/>
    </contour>
  </outline>
</glyph>
<glyph name="C" format="1">
  <advance width="830"/>
  <unicode hex="0043"/>
  <outline>
    <contour>
      <point x="648" y="857" type="line"/>
      <point x="800" y="857" type="line"/>
      <point x="815" y="1087" type="line"/>
      <point x="815" y="1087"/>
      <point x="737" y="1191"/>
      <point x="514" y="1191" type="curve" smooth="yes"/>
      <point x="146" y="1191"/>
      <point x="38" y="961"/>
      <point x="38" y="583" type="curve" smooth="yes"/>
      <point x="38" y="229"/>
      <point x="146" y="-21"/>
      <point x="506" y="-21" type="curve" smooth="yes"/>
      <point x="729" y="-21"/>
      <point x="807" y="83"/>
      <point x="807" y="83" type="curve"/>
      <point x="762" y="241" type="line"/>
      <point x="709" y="203"/>
      <point x="622" y="190"/>
      <point x="563" y="190" type="curve" smooth="yes"/>
      <point x="500" y="190"/>
      <point x="389" y="230"/>
      <point x="389" y="577" type="curve" smooth="yes"/>
      <point x="389" y="913"/>
      <point x="440" y="981"/>
      <point x="566" y="981" type="curve" smooth="yes"/>
      <point x="575" y="981"/>
      <point x="585" y="979"/>
      <point x="596" y="976" type="curve"/>
    </contour>
  </outline>
</glyph>
<glyph name="D" format="1">
  <advance width="999"/>
  <unicode hex="0044"/>
  <outline>
    <contour>
      <point x="496" y="1181" type="curve" smooth="yes"/>
      <point x="408" y="1181"/>
      <point x="365" y="1175"/>
      <point x="226" y="1172" type="curve"/>
      <point x="67" y="1172" type="line"/>
      <point x="67" y="0" type="line"/>
      <point x="226" y="0" type="line" smooth="yes"/>
      <point x="371" y="0"/>
      <point x="407" y="-7"/>
      <point x="493" y="-7" type="curve" smooth="yes"/>
      <point x="875" y="-7"/>
      <point x="972" y="331"/>
      <point x="972" y="621" type="curve" smooth="yes"/>
      <point x="972" y="967"/>
      <point x="851" y="1181"/>
    </contour>
    <contour>
      <point x="619" y="568" type="line" smooth="yes"/>
      <point x="619" y="267"/>
      <point x="558" y="164"/>
      <point x="462" y="164" type="curve" smooth="yes"/>
      <point x="398" y="164" type="line"/>
      <point x="398" y="999" type="line"/>
      <point x="473" y="999" type="line" smooth="yes"/>
      <point x="566" y="999"/>
      <point x="619" y="880"/>
      <point x="619" y="669" type="curve" smooth="yes"/>
    </contour>
  </outline>
</glyph>
<glyph name="G" format="1">
  <advance width="1005"/>
  <unicode hex="0047"/>
  <outline>
    <contour>
      <point x="714" y="856" type="line"/>
      <point x="896" y="856" type="line"/>
      <point x="911" y="1086" type="line"/>
      <point x="911" y="1086"/>
      <point x="823" y="1191"/>
      <point x="579" y="1191" type="curve" smooth="yes"/>
      <point x="128" y="1191"/>
      <point x="19" y="946"/>
      <point x="19" y="568" type="curve" smooth="yes"/>
      <point x="19" y="226"/>
      <point x="139" y="-21"/>
      <point x="479" y="-21" type="curve" smooth="yes"/>
      <point x="612" y="-21"/>
      <point x="709" y="34"/>
      <point x="781" y="106" type="curve"/>
      <point x="793" y="0" type="line"/>
      <point x="971" y="0" type="line"/>
      <point x="972" y="688" type="line"/>
      <point x="527" y="688" type="line"/>
      <point x="527" y="484" type="line"/>
      <point x="659" y="454" type="line"/>
      <point x="659" y="352" type="line" smooth="yes"/>
      <point x="659" y="205"/>
      <point x="600" y="181"/>
      <point x="514" y="181" type="curve" smooth="yes"/>
      <point x="412" y="181"/>
      <point x="396" y="352"/>
      <point x="396" y="608" type="curve" smooth="yes"/>
      <point x="396" y="962"/>
      <point x="468" y="1001"/>
      <point x="586" y="1001" type="curve" smooth="yes"/>
      <point x="622" y="1001"/>
      <point x="646" y="995"/>
      <point x="657" y="989" type="curve"/>
    </contour>
  </outline>
</glyph>
<glyph name="I" format="1">
  <advance width="480"/>
  <unicode hex="0049"/>
  <outline>
    <contour>
      <point x="411" y="1172" type="line"/>
      <point x="70" y="1172" type="line"/>
      <point x="70" y="0" type="line"/>
      <point x="411" y="0" type="line"/>
    </contour>
  </outline>
</glyph>
<glyph name="J" format="1">
  <advance width="661"/>
  <unicode hex="004A"/>
  <outline>
    <contour>
      <point x="281" y="1084" type="line"/>
      <point x="281" y="357" type="line" smooth="yes"/>
      <point x="281" y="249"/>
      <point x="229" y="217"/>
      <point x="164" y="217" type="curve" smooth="yes"/>
      <point x="119" y="217"/>
      <point x="100" y="225"/>
      <point x="59" y="247" type="curve"/>
      <point x="62" y="40" type="line"/>
      <point x="85" y="18"/>
      <point x="166" y="-19"/>
      <point x="274" y="-19" type="curve" smooth="yes"/>
      <point x="551" y="-19"/>
      <point x="606" y="160"/>
      <point x="606" y="376" type="curve" smooth="yes"/>
      <point x="606" y="1172" type="line"/>
      <point x="233" y="1172" type="line"/>
    </contour>
  </outline>
</glyph>
<glyph name="L" format="1">
  <advance width="722"/>
  <unicode hex="004C"/>
  <outline>
    <contour>
      <point x="696" y="268" type="line"/>
      <point x="398" y="268" type="line"/>
      <point x="398" y="1172" type="line"/>
      <point x="67" y="1172" type="line"/>
      <point x="67" y="0" type="line"/>
      <point x="696" y="0" type="line"/>
    </contour>
  </outline>
</glyph>
<glyph name="O" format="1">
  <advance width="1047"/>
  <unicode hex="004F"/>
  <outline>
    <contour>
      <point x="500" y="-21" type="curve" smooth="yes"/>
      <point x="914" y="-21"/>
      <point x="1009" y="205"/>
      <point x="1009" y="584" type="curve" smooth="yes"/>
      <point x="1009" y="937"/>
      <point x="942" y="1191"/>
      <point x="545" y="1191" type="curve" smooth="yes"/>
      <point x="130" y="1191"/>
      <point x="38" y="959"/>
      <point x="38" y="582" type="curve" smooth="yes"/>
      <point x="38" y="227"/>
      <point x="105" y="-21"/>
    </contour>
    <contour>
      <point x="521" y="157" type="curve" smooth="yes"/>
      <point x="437" y="157"/>
      <point x="406" y="229"/>
      <point x="406" y="453" type="curve" smooth="yes"/>
      <point x="406" y="704" type="line" smooth="yes"/>
      <point x="406" y="949"/>
      <point x="437" y="1022"/>
      <point x="521" y="1022" type="curve" smooth="yes"/>
      <point x="609" y="1022"/>
      <point x="641" y="923"/>
      <point x="641" y="739" type="curve" smooth="yes"/>
      <point x="641" y="498" type="line" smooth="yes"/>
      <point x="641" y="202"/>
      <point x="609" y="157"/>
    </contour>
  </outline>
</glyph>
<glyph name="P" format="1">
  <advance width="938"/>
  <unicode hex="0050"/>
  <outline>
    <contour>
      <point x="398" y="0" type="line"/>
      <point x="398" y="248" type="line"/>
      <point x="428" y="246"/>
      <point x="482" y="242"/>
      <point x="536" y="242" type="curve" smooth="yes"/>
      <point x="741" y="242"/>
      <point x="929" y="428"/>
      <point x="929" y="769" type="curve" smooth="yes"/>
      <point x="929" y="1046"/>
      <point x="792" y="1181"/>
      <point x="535" y="1181" type="curve" smooth="yes"/>
      <point x="403" y="1181"/>
      <point x="311" y="1172"/>
      <point x="199" y="1172" type="curve" smooth="yes"/>
      <point x="67" y="1172" type="line"/>
      <point x="67" y="0" type="line"/>
    </contour>
    <contour>
      <point x="446" y="979" type="line" smooth="yes"/>
      <point x="550" y="979"/>
      <point x="601" y="907"/>
      <point x="601" y="813" type="curve" smooth="yes"/>
      <point x="601" y="665" type="line" smooth="yes"/>
      <point x="601" y="531"/>
      <point x="540" y="459"/>
      <point x="435" y="459" type="curve" smooth="yes"/>
      <point x="398" y="459" type="line"/>
      <point x="398" y="979" type="line"/>
    </contour>
  </outline>
</glyph>
<glyph name="Q" format="1">
  <advance width="1047"/>
  <unicode hex="0051"/>
  <outline>
    <contour>
      <point x="378" y="31" type="curve"/>
      <point x="378" y="-223"/>
      <point x="438" y="-324"/>
      <point x="624" y="-324" type="curve" smooth="yes"/>
      <point x="776" y="-324"/>
      <point x="848" y="-272"/>
      <point x="872" y="-250" type="curve"/>
      <point x="872" y="-114" type="line"/>
      <point x="855" y="-126"/>
      <point x="832" y="-133"/>
      <point x="804" y="-133" type="curve" smooth="yes"/>
      <point x="747" y="-133"/>
      <point x="708" y="-117"/>
      <point x="708" y="-1" type="curve" smooth="yes"/>
      <point x="708" y="34" type="line"/>
      <point x="685" y="36"/>
      <point x="652" y="37"/>
      <point x="614" y="37" type="curve" smooth="yes"/>
      <point x="510" y="37"/>
      <point x="378" y="31"/>
    </contour>
    <contour>
      <point x="500" y="-21" type="curve" smooth="yes"/>
      <point x="914" y="-21"/>
      <point x="1009" y="205"/>
      <point x="1009" y="584" type="curve" smooth="yes"/>
      <point x="1009" y="937"/>
      <point x="942" y="1191"/>
      <point x="545" y="1191" type="curve" smooth="yes"/>
      <point x="130" y="1191"/>
      <point x="38" y="959"/>
      <point x="38" y="582" type="curve" smooth="yes"/>
      <point x="38" y="227"/>
      <point x="105" y="-21"/>
    </contour>
    <contour>
      <point x="521" y="147" type="curve" smooth="yes"/>
      <point x="437" y="147"/>
      <point x="406" y="219"/>
      <point x="406" y="443" type="curve" smooth="yes"/>
      <point x="406" y="704" type="line" smooth="yes"/>
      <point x="406" y="949"/>
      <point x="437" y="1022"/>
      <point x="521" y="1022" type="curve" smooth="yes"/>
      <point x="609" y="1022"/>
      <point x="641" y="923"/>
      <point x="641" y="739" type="curve" smooth="yes"/>
      <point x="641" y="488" type="line" smooth="yes"/>
      <point x="641" y="192"/>
      <point x="609" y="147"/>
    </contour>
  </outline>
</glyph>
<glyph name="U" format="1">
  <advance width="1033"/>
  <unicode hex="0055"/>
  <outline>
    <contour>
      <point x="651" y="1172" type="line"/>
      <point x="651" y="410" type="line" smooth="yes"/>
      <point x="651" y="232"/>
      <point x="595" y="191"/>
      <point x="526" y="191" type="curve" smooth="yes"/>
      <point x="465" y="191"/>
      <point x="422" y="232"/>
      <point x="422" y="413" type="curve" smooth="yes"/>
      <point x="422" y="1172" type="line"/>
      <point x="66" y="1172" type="line"/>
      <point x="66" y="368" type="line" smooth="yes"/>
      <point x="66" y="151"/>
      <point x="167" y="-21"/>
      <point x="520" y="-21" type="curve" smooth="yes"/>
      <point x="881" y="-21"/>
      <point x="967" y="151"/>
      <point x="967" y="362" type="curve" smooth="yes"/>
      <point x="967" y="1172" type="line"/>
    </contour>
  </outline>
</glyph>
<glyph name="V" format="1">
  <advance width="853"/>
  <unicode hex="0056"/>
  <outline>
    <contour>
      <point x="565" y="768" type="line"/>
      <point x="480" y="344" type="line"/>
      <point x="390" y="768" type="line"/>
      <point x="303" y="1172" type="line"/>
      <point x="-66" y="1172" type="line"/>
      <point x="265" y="0" type="line"/>
      <point x="628" y="0" type="line"/>
      <point x="918" y="1172" type="line"/>
      <point x="655" y="1172" type="line"/>
    </contour>
  </outline>
</glyph>
<glyph name="Y" format="1">
  <advance width="883"/>
  <unicode hex="0059"/>
  <outline>
    <contour>
      <point x="557" y="870" type="line"/>
      <point x="500" y="623" type="line"/>
      <point x="431" y="870" type="line"/>
      <point x="328" y="1172" type="line"/>
      <point x="-51" y="1172" type="line"/>
      <point x="281" y="366" type="line"/>
      <point x="281" y="0" type="line"/>
      <point x="640" y="0" type="line"/>
      <point x="640" y="372" type="line"/>
      <point x="933" y="1172" type="line"/>
      <point x="635" y="1172" type="line"/>
    </contour>
  </outline>
</glyph>
<glyph name="bracketleft" format="1">
  <advance width="627"/>
  <unicode hex="005B"/>
  <outline>
    <contour>
      <point x="100" y="1417" type="line"/>
      <point x="100" y="-283" type="line"/>
      <point x="557" y="-283" type="line"/>
      <point x="557" y="-99" type="line"/>
      <point x="383" y="-99" type="line"/>
      <point x="383" y="1233" type="line"/>
      <point x="557" y="1233" type="line"/>
      <point x="557" y="1417" type="line"/>
    </contour>
  </outline>
</glyph>
<glyph name="bracketright" format="1">
  <advance width="627"/>
  <unicode hex="005D"/>
  <outline>
    <contour>
      <point x="70" y="1417" type="line"/>
      <point x="70" y="1233" type="line"/>
      <point x="244" y="1233" type="line"/>
      <point x="244" y="-99" type="line"/>
      <point x="70" y="-99" type="line"/>
      <point x="70" y="-283" type="line"/>
      <point x="527" y="-283" type="line"/>
      <point x="527" y="1417" type="line"/>
    </contour>
  </outline>
</glyph>
<glyph name="asciicircum" format="1">
  <advance width="1024"/>
  <unicode hex="005E"/>
  <outline>
    <contour>
      <point x="383" y="524" type="line"/>
      <point x="478" y="828" type="line"/>
      <point x="558" y="524" type="line"/>
      <point x="635" y="220" type="line"/>
      <point x="1004" y="220" type="line"/>
      <point x="693" y="1172" type="line"/>
      <point x="330" y="1172" type="line"/>
      <point x="20" y="220" type="line"/>
      <point x="283" y="220" type="line"/>
    </contour>
  </outline>
</glyph>
<glyph name="grave" format="1">
  <advance width="503"/>
  <unicode hex="0060"/>
  <outline>
    <contour>
      <point x="50" y="1296" type="line"/>
      <point x="289" y="966" type="line"/>
      <point x="453" y="966" type="line"/>
      <point x="313" y="1296" type="line"/>
    </contour>
  </outline>
</glyph>
<glyph name="a" format="1">
  <advance width="837"/>
  <unicode hex="0061"/>
  <outline>
    <contour>
      <point x="788" y="485" type="line" smooth="yes"/>
      <point x="788" y="771"/>
      <point x="705" y="870"/>
      <point x="443" y="870" type="curve" smooth="yes"/>
      <point x="280" y="870"/>
      <point x="123" y="810"/>
      <point x="44" y="759" type="curve"/>
      <point x="108" y="623" type="line"/>
      <point x="157" y="649"/>
      <point x="257" y="672"/>
      <point x="342" y="672" type="curve" smooth="yes"/>
      <point x="437" y="672"/>
      <point x="479" y="643"/>
      <point x="479" y="561" type="curve" smooth="yes"/>
      <point x="479" y="543" type="line"/>
      <point x="337" y="543"/>
      <point x="10" y="498"/>
      <point x="10" y="246" type="curve" smooth="yes"/>
      <point x="10" y="62"/>
      <point x="108" y="-21"/>
      <point x="280" y="-21" type="curve" smooth="yes"/>
      <point x="422" y="-21"/>
      <point x="510" y="89"/>
      <point x="510" y="89" type="curve"/>
      <point x="542" y="0" type="line"/>
      <point x="816" y="0" type="line"/>
      <point x="788" y="78" type="line"/>
    </contour>
    <contour>
      <point x="479" y="177" type="line"/>
      <point x="476" y="177"/>
      <point x="461" y="155"/>
      <point x="431" y="155" type="curve" smooth="yes"/>
      <point x="363" y="155"/>
      <point x="346" y="217"/>
      <point x="346" y="280" type="curve" smooth="yes"/>
      <point x="346" y="378"/>
      <point x="403" y="417"/>
      <point x="479" y="417" type="curve"/>
      <point x="479" y="179" type="line"/>
    </contour>
  </outline>
</glyph>
<glyph name="b" format="1">
  <advance width="951"/>
  <unicode hex="0062"/>
  <outline>
    <contour>
      <point x="390" y="1310" type="line"/>
      <point x="325" y="1310" type="line"/>
      <point x="4" y="1260" type="line"/>
      <point x="4" y="1167" type="line"/>
      <point x="64" y="1131" type="line"/>
      <point x="64" y="0" type="line"/>
      <point x="390" y="0" type="line"/>
    </contour>
    <contour>
      <point x="387" y="664" type="line"/>
      <point x="414" y="683"/>
      <point x="440" y="693"/>
      <point x="465" y="693" type="curve" smooth="yes"/>
      <point x="527" y="693"/>
      <point x="577" y="633"/>
      <point x="577" y="514" type="curve" smooth="yes"/>
      <point x="577" y="344" type="line" smooth="yes"/>
      <point x="577" y="213"/>
      <point x="538" y="139"/>
      <point x="443" y="139" type="curve" smooth="yes"/>
      <point x="424" y="139"/>
      <point x="404" y="142"/>
      <point x="381" y="148" type="curve"/>
      <point x="353" y="70" type="line"/>
      <point x="353" y="70"/>
      <point x="437" y="0"/>
      <point x="590" y="0" type="curve" smooth="yes"/>
      <point x="816" y="0"/>
      <point x="926" y="198"/>
      <point x="926" y="444" type="curve" smooth="yes"/>
      <point x="926" y="697"/>
      <point x="836" y="870"/>
      <point x="606" y="870" type="curve" smooth="yes"/>
      <point x="426" y="870"/>
      <point x="353" y="719"/>
      <point x="353" y="719" type="curve"/>
    </contour>
  </outline>
</glyph>
<glyph name="d" format="1">
  <advance width="948"/>
  <unicode hex="0064"/>
  <outline>
    <contour>
      <point x="892" y="1310" type="line"/>
      <point x="814" y="1310" type="line"/>
      <point x="460" y="1260" type="line"/>
      <point x="460" y="1150" type="line"/>
      <point x="570" y="1113" type="line"/>
      <point x="570" y="198" type="line"/>
      <point x="597" y="134" type="line"/>
      <point x="637" y="0" type="line"/>
      <point x="892" y="0" type="line"/>
    </contour>
    <contour>
      <point x="570" y="209" type="line"/>
      <point x="546" y="193"/>
      <point x="520" y="184"/>
      <point x="496" y="184" type="curve" smooth="yes"/>
      <point x="433" y="184"/>
      <point x="379" y="242"/>
      <point x="379" y="374" type="curve" smooth="yes"/>
      <point x="379" y="514" type="line" smooth="yes"/>
      <point x="379" y="645"/>
      <point x="418" y="719"/>
      <point x="513" y="719" type="curve" smooth="yes"/>
      <point x="532" y="719"/>
      <point x="553" y="716"/>
      <point x="576" y="710" type="curve"/>
      <point x="604" y="788" type="line"/>
      <point x="604" y="788"/>
      <point x="520" y="858"/>
      <point x="366" y="858" type="curve" smooth="yes"/>
      <point x="141" y="858"/>
      <point x="31" y="661"/>
      <point x="31" y="415" type="curve" smooth="yes"/>
      <point x="31" y="161"/>
      <point x="120" y="-12"/>
      <point x="350" y="-12" type="curve" smooth="yes"/>
      <point x="530" y="-12"/>
      <point x="604" y="139"/>
      <point x="604" y="139" type="curve"/>
    </contour>
  </outline>
</glyph>
<glyph name="e" format="1">
  <advance width="861"/>
  <unicode hex="0065"/>
  <outline>
    <contour>
      <point x="374" y="369" type="line"/>
      <point x="831" y="369" type="line"/>
      <point x="831" y="480" type="line" smooth="yes"/>
      <point x="831" y="750"/>
      <point x="729" y="870"/>
      <point x="464" y="870" type="curve" smooth="yes"/>
      <point x="196" y="870"/>
      <point x="31" y="721"/>
      <point x="31" y="416" type="curve" smooth="yes"/>
      <point x="31" y="176"/>
      <point x="138" y="-21"/>
      <point x="447" y="-21" type="curve" smooth="yes"/>
      <point x="552" y="-21"/>
      <point x="740" y="18"/>
      <point x="819" y="148" type="curve"/>
      <point x="760" y="249" type="line"/>
      <point x="702" y="195"/>
      <point x="601" y="167"/>
      <point x="533" y="167" type="curve" smooth="yes"/>
      <point x="449" y="167"/>
      <point x="374" y="187"/>
      <point x="374" y="350" type="curve" smooth="yes"/>
    </contour>
    <contour>
      <point x="466" y="750" type="curve" smooth="yes"/>
      <point x="513" y="750"/>
      <point x="527" y="683"/>
      <point x="527" y="517" type="curve"/>
      <point x="375" y="517" type="line"/>
      <point x="375" y="601" type="line" smooth="yes"/>
      <point x="375" y="685"/>
      <point x="383" y="750"/>
    </contour>
  </outline>
</glyph>
<glyph name="k" format="1">
  <advance width="913"/>
  <unicode hex="006B"/>
  <outline>
    <contour>
      <point x="390" y="1310" type="line"/>
      <point x="325" y="1310" type="line"/>
      <point x="4" y="1260" type="line"/>
      <point x="4" y="1167" type="line"/>
      <point x="64" y="1131" type="line"/>
      <point x="64" y="0" type="line"/>
      <point x="390" y="0" type="line"/>
    </contour>
    <contour>
      <point x="574" y="850" type="line"/>
      <point x="410" y="409" type="line"/>
      <point x="565" y="0" type="line"/>
      <point x="955" y="0" type="line"/>
      <point x="687" y="457" type="line"/>
      <point x="949" y="850" type="line"/>
    </contour>
  </outline>
</glyph>
<glyph name="n" format="1">
  <advance width="949"/>
  <unicode hex="006E"/>
  <outline>
    <contour>
      <point x="652" y="870" type="curve" smooth="yes"/>
      <point x="511" y="870"/>
      <point x="403" y="721"/>
      <point x="403" y="721" type="curve"/>
      <point x="403" y="850" type="line"/>
      <point x="233" y="850" type="line"/>
      <point x="18" y="791" type="line"/>
      <point x="18" y="684" type="line"/>
      <point x="78" y="647" type="line"/>
      <point x="78" y="0" type="line"/>
      <point x="401" y="0" type="line"/>
      <point x="401" y="583" type="line"/>
      <point x="426" y="604"/>
      <point x="453" y="630"/>
      <point x="491" y="630" type="curve" smooth="yes"/>
      <point x="549" y="630"/>
      <point x="573" y="592"/>
      <point x="571" y="536" type="curve"/>
      <point x="571" y="0" type="line"/>
      <point x="901" y="0" type="line"/>
      <point x="901" y="507" type="line" smooth="yes"/>
      <point x="901" y="520"/>
      <point x="902" y="532"/>
      <point x="902" y="544" type="curve" smooth="yes"/>
      <point x="902" y="778"/>
      <point x="835" y="870"/>
    </contour>
  </outline>
</glyph>
<glyph name="o" format="1">
  <advance width="961"/>
  <unicode hex="006F"/>
  <outline>
    <contour>
      <point x="486" y="870" type="curve" smooth="yes"/>
      <point x="154" y="870"/>
      <point x="31" y="705"/>
      <point x="31" y="415" type="curve" smooth="yes"/>
      <point x="31" y="111"/>
      <point x="167" y="-21"/>
      <point x="472" y="-21" type="curve" smooth="yes"/>
      <point x="791" y="-21"/>
      <point x="930" y="125"/>
      <point x="930" y="429" type="curve" smooth="yes"/>
      <point x="930" y="718"/>
      <point x="806" y="870"/>
    </contour>
    <contour>
      <point x="571" y="236" type="line" smooth="yes"/>
      <point x="571" y="152"/>
      <point x="539" y="99"/>
      <point x="480" y="99" type="curve" smooth="yes"/>
      <point x="422" y="99"/>
      <point x="388" y="159"/>
      <point x="388" y="288" type="curve" smooth="yes"/>
      <point x="388" y="613" type="line" smooth="yes"/>
      <point x="388" y="700"/>
      <point x="423" y="747"/>
      <point x="479" y="747" type="curve" smooth="yes"/>
      <point x="541" y="747"/>
      <point x="571" y="678"/>
      <point x="571" y="552" type="curve" smooth="yes"/>
    </contour>
  </outline>
</glyph>
<glyph name="p" format="1">
  <advance width="965"/>
  <unicode hex="0070"/>
  <outline>
    <contour>
      <point x="387" y="664" type="line"/>
      <point x="414" y="682"/>
      <point x="442" y="692"/>
      <point x="468" y="692" type="curve" smooth="yes"/>
      <point x="528" y="692"/>
      <point x="577" y="640"/>
      <point x="577" y="514" type="curve" smooth="yes"/>
      <point x="577" y="344" type="line" smooth="yes"/>
      <point x="577" y="213"/>
      <point x="538" y="139"/>
      <point x="443" y="139" type="curve" smooth="yes"/>
      <point x="424" y="139"/>
      <point x="404" y="142"/>
      <point x="381" y="148" type="curve"/>
      <point x="353" y="70" type="line"/>
      <point x="353" y="70"/>
      <point x="437" y="0"/>
      <point x="590" y="0" type="curve" smooth="yes"/>
      <point x="816" y="0"/>
      <point x="926" y="198"/>
      <point x="926" y="444" type="curve" smooth="yes"/>
      <point x="926" y="697"/>
      <point x="836" y="870"/>
      <point x="606" y="870" type="curve" smooth="yes"/>
      <point x="426" y="870"/>
      <point x="353" y="719"/>
      <point x="353" y="719" type="curve"/>
    </contour>
    <contour>
      <point x="400" y="850" type="line"/>
      <point x="233" y="850" type="line"/>
      <point x="18" y="791" type="line"/>
      <point x="18" y="684" type="line"/>
      <point x="78" y="647" type="line"/>
      <point x="78" y="-302" type="line"/>
      <point x="400" y="-302" type="line"/>
    </contour>
  </outline>
</glyph>
<glyph name="s" format="1">
  <advance width="735"/>
  <unicode hex="0073"/>
  <outline>
    <contour>
      <point x="505" y="574" type="curve"/>
      <point x="416" y="602"/>
      <point x="347" y="601"/>
      <point x="347" y="656" type="curve" smooth="yes"/>
      <point x="347" y="684"/>
      <point x="365" y="712"/>
      <point x="442" y="712" type="curve" smooth="yes"/>
      <point x="504" y="712"/>
      <point x="567" y="703"/>
      <point x="624" y="647" type="curve"/>
      <point x="668" y="790" type="line"/>
      <point x="668" y="790"/>
      <point x="611" y="870"/>
      <point x="398" y="870" type="curve" smooth="yes"/>
      <point x="205" y="870"/>
      <point x="32" y="781"/>
      <point x="32" y="593" type="curve" smooth="yes"/>
      <point x="32" y="410"/>
      <point x="158" y="335"/>
      <point x="265" y="303" type="curve" smooth="yes"/>
      <point x="376" y="270"/>
      <point x="435" y="245"/>
      <point x="435" y="209" type="curve" smooth="yes"/>
      <point x="435" y="177"/>
      <point x="416" y="152"/>
      <point x="330" y="152" type="curve" smooth="yes"/>
      <point x="217" y="152"/>
      <point x="98" y="190"/>
      <point x="54" y="233" type="curve"/>
      <point x="28" y="72" type="line"/>
      <point x="60" y="37"/>
      <point x="205" y="-21"/>
      <point x="341" y="-21" type="curve" smooth="yes"/>
      <point x="617" y="-21"/>
      <point x="728" y="97"/>
      <point x="728" y="287" type="curve" smooth="yes"/>
      <point x="728" y="425"/>
      <point x="665" y="521"/>
    </contour>
  </outline>
</glyph>
<glyph name="t" format="1">
  <advance width="570"/>
  <unicode hex="0074"/>
  <outline>
    <contour>
      <point x="394" y="674" type="line"/>
      <point x="561" y="674" type="line"/>
      <point x="561" y="850" type="line"/>
      <point x="397" y="850" type="line"/>
      <point x="397" y="1083" type="line"/>
      <point x="221" y="1083" type="line"/>
      <point x="119" y="850" type="line"/>
      <point x="1" y="813" type="line"/>
      <point x="1" y="674" type="line"/>
      <point x="70" y="674" type="line"/>
      <point x="70" y="334" type="line" smooth="yes"/>
      <point x="70" y="81"/>
      <point x="129" y="-21"/>
      <point x="312" y="-21" type="curve" smooth="yes"/>
      <point x="461" y="-21"/>
      <point x="532" y="31"/>
      <point x="554" y="53" type="curve"/>
      <point x="554" y="189" type="line"/>
      <point x="539" y="177"/>
      <point x="516" y="170"/>
      <point x="488" y="170" type="curve" smooth="yes"/>
      <point x="432" y="170"/>
      <point x="394" y="186"/>
      <point x="394" y="302" type="curve" smooth="yes"/>
    </contour>
  </outline>
</glyph>
<glyph name="v" format="1">
  <advance width="820"/>
  <unicode hex="0076"/>
  <outline>
    <contour>
      <point x="-23" y="850" type="line"/>
      <point x="271" y="0" type="line"/>
      <point x="586" y="0" type="line"/>
      <point x="841" y="850" type="line"/>
      <point x="571" y="850" type="line"/>
      <point x="497" y="543" type="line"/>
      <point x="446" y="278" type="line"/>
      <point x="400" y="543" type="line"/>
      <point x="336" y="850" type="line"/>
    </contour>
  </outline>
</glyph>
<glyph name="y" format="1">
  <advance width="930"/>
  <unicode hex="0079"/>
  <outline>
    <contour>
      <point x="566" y="47" type="line"/>
      <point x="564" y="-117"/>
      <point x="497" y="-158"/>
      <point x="397" y="-158" type="curve" smooth="yes"/>
      <point x="317" y="-158"/>
      <point x="248" y="-145"/>
      <point x="213" y="-125" type="curve"/>
      <point x="161" y="-233" type="line"/>
      <point x="218" y="-302"/>
      <point x="353" y="-344"/>
      <point x="488" y="-344" type="curve" smooth="yes"/>
      <point x="758" y="-344"/>
      <point x="873" y="-168"/>
      <point x="873" y="117" type="curve" smooth="yes"/>
      <point x="873" y="850" type="line"/>
      <point x="492" y="850" type="line"/>
      <point x="492" y="735" type="line"/>
      <point x="547" y="699" type="line"/>
      <point x="547" y="229" type="line"/>
      <point x="520" y="205"/>
      <point x="495" y="192"/>
      <point x="469" y="192" type="curve" smooth="yes"/>
      <point x="405" y="192"/>
      <point x="396" y="227"/>
      <point x="396" y="281" type="curve" smooth="yes"/>
      <point x="396" y="850" type="line"/>
      <point x="32" y="850" type="line"/>
      <point x="32" y="735" type="line"/>
      <point x="68" y="699" type="line"/>
      <point x="68" y="344" type="line" smooth="yes"/>
      <point x="68" y="82"/>
      <point x="139" y="-21"/>
      <point x="339" y="-21" type="curve" smooth="yes"/>
      <point x="478" y="-21"/>
      <point x="566" y="133"/>
      <point x="566" y="133" type="curve"/>
    </contour>
  </outline>
</glyph>
<glyph name="z" format="1">
  <advance width="800"/>
  <unicode hex="007A"/>
  <outline>
    <contour>
      <point x="783" y="689" type="line"/>
      <point x="762" y="741"/>
      <point x="744" y="804"/>
      <point x="737" y="850" type="curve"/>
      <point x="68" y="850" type="line"/>
      <point x="68" y="557" type="line"/>
      <point x="206" y="557" type="line"/>
      <point x="232" y="621"/>
      <point x="237" y="715"/>
      <point x="483" y="715" type="curve"/>
      <point x="371" y="632" type="line"/>
      <point x="15" y="176" type="line"/>
      <point x="30" y="135"/>
      <point x="52" y="47"/>
      <point x="56" y="0" type="curve"/>
      <point x="767" y="0" type="line"/>
      <point x="767" y="302" type="line"/>
      <point x="650" y="302" type="line"/>
      <point x="622" y="199"/>
      <point x="628" y="158"/>
      <point x="363" y="158" type="curve"/>
      <point x="486" y="249" type="line"/>
    </contour>
  </outline>
</glyph>
<glyph name="braceleft" format="1">
  <advance width="670"/>
  <unicode hex="007B"/>
  <outline>
    <contour>
      <point x="31" y="666" type="line"/>
      <point x="31" y="491" type="line"/>
      <point x="96" y="491" type="line" smooth="yes"/>
      <point x="171" y="491"/>
      <point x="193" y="411"/>
      <point x="193" y="360" type="curve" smooth="yes"/>
      <point x="193" y="81" type="line" smooth="yes"/>
      <point x="193" y="-118"/>
      <point x="338" y="-280"/>
      <point x="535" y="-280" type="curve" smooth="yes"/>
      <point x="628" y="-280" type="line"/>
      <point x="628" y="-136" type="line"/>
      <point x="509" y="-136"/>
      <point x="465" y="-53"/>
      <point x="465" y="54" type="curve" smooth="yes"/>
      <point x="465" y="308" type="line" smooth="yes"/>
      <point x="465" y="495"/>
      <point x="286" y="568"/>
      <point x="216" y="578" type="curve"/>
      <point x="286" y="590"/>
      <point x="465" y="660"/>
      <point x="465" y="850" type="curve" smooth="yes"/>
      <point x="465" y="1084" type="line" smooth="yes"/>
      <point x="465" y="1191"/>
      <point x="509" y="1274"/>
      <point x="628" y="1274" type="curve"/>
      <point x="628" y="1418" type="line"/>
      <point x="535" y="1418" type="line" smooth="yes"/>
      <point x="338" y="1418"/>
      <point x="193" y="1256"/>
      <point x="193" y="1057" type="curve" smooth="yes"/>
      <point x="193" y="797" type="line" smooth="yes"/>
      <point x="193" y="748"/>
      <point x="173" y="666"/>
      <point x="96" y="666" type="curve" smooth="yes"/>
    </contour>
  </outline>
</glyph>
<glyph name="exclamdown" format="1">
  <advance width="580"/>
  <unicode hex="00A1"/>
  <outline>
    <contour>
      <point x="81" y="138" type="curve"/>
      <point x="81" y="23"/>
      <point x="136" y="-59"/>
      <point x="280" y="-59" type="curve" smooth="yes"/>
      <point x="409" y="-59"/>
      <point x="481" y="5"/>
      <point x="481" y="134" type="curve" smooth="yes"/>
      <point x="481" y="175"/>
      <point x="474" y="206"/>
      <point x="467" y="228" type="curve"/>
      <point x="392" y="431"/>
      <point x="360" y="554"/>
      <point x="357" y="735" type="curve"/>
      <point x="204" y="735" type="line"/>
      <point x="201" y="554"/>
      <point x="169" y="431"/>
      <point x="94" y="228" type="curve"/>
      <point x="88" y="209"/>
      <point x="81" y="178"/>
    </contour>
    <contour>
      <point x="301" y="826" type="line"/>
      <point x="465" y="990" type="line"/>
      <point x="465" y="1025" type="line"/>
      <point x="301" y="1190" type="line"/>
      <point x="263" y="1190" type="line"/>
      <point x="92" y="1025" type="line"/>
      <point x="92" y="990" type="line"/>
      <point x="263" y="826" type="line"/>
    </contour>
  </outline>
</glyph>
<glyph name="sterling" format="1">
  <advance width="1141"/>
  <unicode hex="00A3"/>
  <outline>
    <contour>
      <point x="171" y="828" type="curve"/>
      <point x="171" y="828"/>
      <point x="171" y="722"/>
      <point x="171" y="722" type="curve"/>
      <point x="40" y="722" type="line"/>
      <point x="40" y="521" type="line"/>
      <point x="161" y="521" type="line"/>
      <point x="166" y="455"/>
      <point x="169" y="515"/>
      <point x="169" y="461" type="curve" smooth="yes"/>
      <point x="169" y="179"/>
      <point x="-1" y="144"/>
      <point x="3" y="146" type="curve"/>
      <point x="132" y="-24" type="line"/>
      <point x="142" y="-15" type="line" smooth="yes"/>
      <point x="168" y="8"/>
      <point x="248" y="63"/>
      <point x="336" y="63" type="curve" smooth="yes"/>
      <point x="414" y="63"/>
      <point x="585" y="0"/>
      <point x="673" y="0" type="curve" smooth="yes"/>
      <point x="814" y="0"/>
      <point x="1092" y="62"/>
      <point x="1092" y="291" type="curve" smooth="yes"/>
      <point x="1092" y="430" type="line"/>
      <point x="792" y="430" type="line"/>
      <point x="793" y="401" type="line" smooth="yes"/>
      <point x="799" y="235"/>
      <point x="732" y="191"/>
      <point x="644" y="191" type="curve" smooth="yes"/>
      <point x="608" y="191"/>
      <point x="447" y="228"/>
      <point x="336" y="173" type="curve"/>
      <point x="520" y="265"/>
      <point x="513" y="400"/>
      <point x="513" y="521" type="curve"/>
      <point x="711" y="521" type="line"/>
      <point x="711" y="722" type="line"/>
      <point x="517" y="722" type="line"/>
      <point x="518" y="879" type="line"/>
      <point x="518" y="936"/>
      <point x="588" y="959"/>
      <point x="686" y="959" type="curve" smooth="yes"/>
      <point x="748" y="959"/>
      <point x="839" y="934"/>
      <point x="895" y="868" type="curve"/>
      <point x="945" y="1061" type="line"/>
      <point x="945" y="1061"/>
      <point x="864" y="1185"/>
      <point x="634" y="1185" type="curve" smooth="yes"/>
      <point x="357" y="1185"/>
      <point x="171" y="1077"/>
    </contour>
  </outline>
</glyph>
<glyph name="yen" format="1">
  <advance width="1041"/>
  <unicode hex="00A5"/>
  <outline>
    <contour>
      <point x="355" y="401" type="line"/>
      <point x="355" y="0" type="line"/>
      <point x="714" y="0" type="line"/>
      <point x="714" y="401" type="line"/>
    </contour>
    <contour>
      <point x="631" y="870" type="line"/>
      <point x="574" y="623" type="line"/>
      <point x="505" y="870" type="line"/>
      <point x="402" y="1172" type="line"/>
      <point x="23" y="1172" type="line"/>
      <point x="367" y="337" type="line"/>
      <point x="701" y="337" type="line"/>
      <point x="1007" y="1172" type="line"/>
      <point x="709" y="1172" type="line"/>
    </contour>
    <contour>
      <point x="74" y="585" type="line"/>
      <point x="74" y="334" type="line"/>
      <point x="382" y="334" type="line"/>
      <point x="382" y="585" type="line"/>
    </contour>
    <contour>
      <point x="682" y="585" type="line"/>
      <point x="682" y="334" type="line"/>
      <point x="990" y="334" type="line"/>
      <point x="990" y="585" type="line"/>
    </contour>
  </outline>
</glyph>
<glyph name="section" format="1">
  <advance width="1051"/>
  <unicode hex="00A7"/>
  <outline>
    <contour>
      <point x="493" y="553" type="curve" smooth="yes"/>
      <point x="420" y="591"/>
      <point x="281" y="642"/>
      <point x="281" y="714" type="curve" smooth="yes"/>
      <point x="281" y="771"/>
      <point x="335" y="794"/>
      <point x="409" y="794" type="curve"/>
      <point x="367" y="929" type="line"/>
      <point x="114" y="929"/>
      <point x="67" y="773"/>
      <point x="67" y="694" type="curve" smooth="yes"/>
      <point x="67" y="565"/>
      <point x="192" y="484"/>
      <point x="275" y="440" type="curve" smooth="yes"/>
      <point x="386" y="381"/>
      <point x="515" y="345"/>
      <point x="515" y="276" type="curve" smooth="yes"/>
      <point x="515" y="213"/>
      <point x="525" y="197"/>
      <point x="424" y="197" type="curve" smooth="yes"/>
      <point x="308" y="197"/>
      <point x="213" y="269"/>
      <point x="165" y="333" type="curve"/>
      <point x="140" y="90" type="line"/>
      <point x="182" y="44"/>
      <point x="298" y="-41"/>
      <point x="516" y="-41" type="curve" smooth="yes"/>
      <point x="763" y="-41"/>
      <point x="896" y="88"/>
      <point x="896" y="199" type="curve" smooth="yes"/>
      <point x="896" y="364"/>
      <point x="720" y="457"/>
    </contour>
    <contour>
      <point x="530" y="685" type="curve"/>
      <point x="603" y="647"/>
      <point x="742" y="596"/>
      <point x="742" y="524" type="curve" smooth="yes"/>
      <point x="742" y="467"/>
      <point x="688" y="444"/>
      <point x="614" y="444" type="curve"/>
      <point x="656" y="309" type="line"/>
      <point x="909" y="309"/>
      <point x="956" y="465"/>
      <point x="956" y="544" type="curve" smooth="yes"/>
      <point x="956" y="673"/>
      <point x="831" y="754"/>
      <point x="748" y="798" type="curve" smooth="yes"/>
      <point x="637" y="857"/>
      <point x="508" y="893"/>
      <point x="508" y="962" type="curve" smooth="yes"/>
      <point x="508" y="1025"/>
      <point x="498" y="1041"/>
      <point x="599" y="1041" type="curve" smooth="yes"/>
      <point x="715" y="1041"/>
      <point x="810" y="969"/>
      <point x="858" y="905" type="curve"/>
      <point x="883" y="1148" type="line"/>
      <point x="841" y="1194"/>
      <point x="725" y="1279"/>
      <point x="507" y="1279" type="curve" smooth="yes"/>
      <point x="260" y="1279"/>
      <point x="127" y="1150"/>
      <point x="127" y="1039" type="curve" smooth="yes"/>
      <point x="127" y="874"/>
      <point x="303" y="781"/>
    </contour>
  </outline>
</glyph>
<glyph name="copyright" format="1">
  <advance width="1049"/>
  <unicode hex="00A9"/>
  <outline>
    <contour>
      <point x="506" y="343" type="curve" smooth="yes"/>
      <point x="190" y="343"/>
      <point x="136" y="542"/>
      <point x="136" y="826" type="curve" smooth="yes"/>
      <point x="136" y="1127"/>
      <point x="210" y="1313"/>
      <point x="542" y="1313" type="curve" smooth="yes"/>
      <point x="859" y="1313"/>
      <point x="913" y="1110"/>
      <point x="913" y="827" type="curve" smooth="yes"/>
      <point x="913" y="524"/>
      <point x="837" y="343"/>
    </contour>
    <contour>
      <point x="506" y="247" type="curve"/>
      <point x="915" y="247"/>
      <point x="1009" y="464"/>
      <point x="1009" y="827" type="curve" smooth="yes"/>
      <point x="1009" y="1166"/>
      <point x="942" y="1409"/>
      <point x="542" y="1409" type="curve" smooth="yes"/>
      <point x="131" y="1409"/>
      <point x="40" y="1186"/>
      <point x="40" y="826" type="curve" smooth="yes"/>
      <point x="40" y="485"/>
      <point x="107" y="247"/>
    </contour>
    <contour>
      <point x="582" y="598" type="curve" smooth="yes"/>
      <point x="546" y="598"/>
      <point x="481" y="622"/>
      <point x="481" y="823" type="curve" smooth="yes"/>
      <point x="481" y="1019"/>
      <point x="510" y="1058"/>
      <point x="584" y="1058" type="curve" smooth="yes"/>
      <point x="618" y="1058"/>
      <point x="669" y="1026"/>
      <point x="700" y="999" type="curve"/>
      <point x="729" y="1120" type="line"/>
      <point x="729" y="1120"/>
      <point x="683" y="1181"/>
      <point x="554" y="1181" type="curve" smooth="yes"/>
      <point x="339" y="1181"/>
      <point x="277" y="1047"/>
      <point x="277" y="827" type="curve" smooth="yes"/>
      <point x="277" y="621"/>
      <point x="339" y="475"/>
      <point x="549" y="475" type="curve" smooth="yes"/>
      <point x="678" y="475"/>
      <point x="724" y="536"/>
      <point x="724" y="536" type="curve"/>
      <point x="698" y="628" type="line"/>
      <point x="667" y="606"/>
      <point x="617" y="598"/>
    </contour>
    <contour>
      <point x="632" y="986" type="line"/>
      <point x="720" y="986" type="line"/>
      <point x="720" y="986"/>
      <point x="729" y="1120"/>
      <point x="729" y="1120" type="curve"/>
      <point x="729" y="1120"/>
      <point x="578" y="1113"/>
      <point x="578" y="1113" type="curve"/>
    </contour>
  </outline>
</glyph>
<glyph name="guillemotleft" format="1">
  <advance width="1288"/>
  <unicode hex="00AB"/>
  <outline>
    <contour>
      <point x="471" y="492" type="line"/>
      <point x="695" y="854" type="line"/>
      <point x="411" y="854" type="line"/>
      <point x="80" y="492" type="line"/>
      <point x="411" y="122" type="line"/>
      <point x="695" y="122" type="line"/>
    </contour>
    <contour>
      <point x="994" y="492" type="line"/>
      <point x="1188" y="854" type="line"/>
      <point x="904" y="854" type="line"/>
      <point x="603" y="492" type="line"/>
      <point x="904" y="122" type="line"/>
      <point x="1188" y="122" type="line"/>
    </contour>
  </outline>
</glyph>
<glyph name="logicalnot" format="1">
  <advance width="1148"/>
  <unicode hex="00AC"/>
  <outline>
    <contour>
      <point x="110" y="615" type="line"/>
      <point x="110" y="414" type="line"/>
      <point x="837" y="414" type="line"/>
      <point x="837" y="0" type="line"/>
      <point x="1038" y="0" type="line"/>
      <point x="1038" y="615" type="line"/>
    </contour>
  </outline>
</glyph>
<glyph name="plusminus" format="1">
  <advance width="1148"/>
  <unicode hex="00B1"/>
  <outline>
    <contour>
      <point x="110" y="201" type="line"/>
      <point x="110" y="0" type="line"/>
      <point x="1038" y="0" type="line"/>
      <point x="1038" y="201" type="line"/>
    </contour>
    <contour>
      <point x="685" y="735" type="line"/>
      <point x="685" y="1126" type="line"/>
      <point x="463" y="1126" type="line"/>
      <point x="463" y="735" type="line"/>
      <point x="110" y="735" type="line"/>
      <point x="110" y="534" type="line"/>
      <point x="463" y="534" type="line"/>
      <point x="463" y="140" type="line"/>
      <point x="685" y="140" type="line"/>
      <point x="685" y="534" type="line"/>
      <point x="1038" y="534" type="line"/>
      <point x="1038" y="735" type="line"/>
    </contour>
  </outline>
</glyph>
<glyph name="uni00B3" format="1">
  <advance width="682"/>
  <unicode hex="00B3"/>
  <outline>
    <contour>
      <point x="422" y="1409" type="curve"/>
      <point x="488" y="1414"/>
      <point x="612" y="1436"/>
      <point x="612" y="1578" type="curve" smooth="yes"/>
      <point x="612" y="1712"/>
      <point x="523" y="1812"/>
      <point x="283" y="1812" type="curve" smooth="yes"/>
      <point x="197" y="1812"/>
      <point x="116" y="1791"/>
      <point x="40" y="1749" type="curve"/>
      <point x="40" y="1634" type="line"/>
      <point x="77" y="1658"/>
      <point x="119" y="1671"/>
      <point x="166" y="1671" type="curve" smooth="yes"/>
      <point x="256" y="1671"/>
      <point x="327" y="1639"/>
      <point x="327" y="1550" type="curve" smooth="yes"/>
      <point x="327" y="1457"/>
      <point x="258" y="1440"/>
      <point x="153" y="1440" type="curve"/>
      <point x="142" y="1440" type="line"/>
      <point x="142" y="1344" type="line"/>
      <point x="152" y="1344" type="line" smooth="yes"/>
      <point x="155" y="1344"/>
      <point x="158" y="1344"/>
      <point x="163" y="1344" type="curve" smooth="yes"/>
      <point x="258" y="1344"/>
      <point x="327" y="1315"/>
      <point x="327" y="1223" type="curve" smooth="yes"/>
      <point x="327" y="1168"/>
      <point x="305" y="1106"/>
      <point x="166" y="1106" type="curve" smooth="yes"/>
      <point x="119" y="1106"/>
      <point x="77" y="1119"/>
      <point x="40" y="1143" type="curve"/>
      <point x="40" y="1028" type="line"/>
      <point x="114" y="987"/>
      <point x="195" y="966"/>
      <point x="283" y="966" type="curve" smooth="yes"/>
      <point x="524" y="966"/>
      <point x="644" y="1068"/>
      <point x="644" y="1184" type="curve" smooth="yes"/>
      <point x="644" y="1329"/>
      <point x="553" y="1400"/>
    </contour>
  </outline>
</glyph>
<glyph name="cedilla" format="1">
  <advance width="587"/>
  <unicode hex="00B8"/>
  <outline>
    <contour>
      <point x="423" y="24" type="line"/>
      <point x="246" y="24" type="line"/>
      <point x="141" y="-170" type="line"/>
      <point x="174" y="-170" type="line"/>
      <point x="213" y="-173"/>
      <point x="270" y="-198"/>
      <point x="270" y="-252" type="curve" smooth="yes"/>
      <point x="270" y="-318"/>
      <point x="219" y="-345"/>
      <point x="157" y="-345" type="curve" smooth="yes"/>
      <point x="137" y="-345"/>
      <point x="114" y="-342"/>
      <point x="91" y="-335" type="curve"/>
      <point x="50" y="-517" type="line"/>
      <point x="95" y="-543"/>
      <point x="160" y="-564"/>
      <point x="221" y="-564" type="curve" smooth="yes"/>
      <point x="367" y="-564"/>
      <point x="537" y="-501"/>
      <point x="537" y="-325" type="curve" smooth="yes"/>
      <point x="537" y="-177"/>
      <point x="456" y="-142"/>
      <point x="387" y="-101" type="curve"/>
    </contour>
  </outline>
</glyph>
<glyph name="guillemotright" format="1">
  <advance width="1288"/>
  <unicode hex="00BB"/>
  <outline>
    <contour>
      <point x="593" y="122" type="line"/>
      <point x="877" y="122" type="line"/>
      <point x="1208" y="492" type="line"/>
      <point x="877" y="854" type="line"/>
      <point x="593" y="854" type="line"/>
      <point x="817" y="492" type="line"/>
    </contour>
    <contour>
      <point x="100" y="122" type="line"/>
      <point x="384" y="122" type="line"/>
      <point x="685" y="492" type="line"/>
      <point x="384" y="854" type="line"/>
      <point x="100" y="854" type="line"/>
      <point x="294" y="492" type="line"/>
    </contour>
  </outline>
</glyph>
<glyph name="questiondown" format="1">
  <advance width="848"/>
  <unicode hex="00BF"/>
  <outline>
    <contour>
      <point x="650" y="77" type="line"/>
      <point x="635" y="25"/>
      <point x="582" y="-5"/>
      <point x="537" y="-5" type="curve" smooth="yes"/>
      <point x="477" y="-5"/>
      <point x="432" y="25"/>
      <point x="432" y="102" type="curve" smooth="yes"/>
      <point x="432" y="173"/>
      <point x="539" y="347"/>
      <point x="539" y="419" type="curve" smooth="yes"/>
      <point x="539" y="491"/>
      <point x="522" y="519"/>
      <point x="517" y="528" type="curve"/>
      <point x="346" y="529" type="line"/>
      <point x="350" y="516" type="line" smooth="yes"/>
      <point x="352" y="510"/>
      <point x="353" y="505"/>
      <point x="353" y="499" type="curve" smooth="yes"/>
      <point x="353" y="402"/>
      <point x="90" y="238"/>
      <point x="90" y="83" type="curve" smooth="yes"/>
      <point x="90" y="-76"/>
      <point x="176" y="-199"/>
      <point x="444" y="-199" type="curve" smooth="yes"/>
      <point x="650" y="-199"/>
      <point x="740" y="-103"/>
      <point x="786" y="-5" type="curve"/>
    </contour>
    <contour>
      <point x="449" y="645" type="line"/>
      <point x="613" y="809" type="line"/>
      <point x="613" y="844" type="line"/>
      <point x="449" y="1009" type="line"/>
      <point x="411" y="1009" type="line"/>
      <point x="240" y="844" type="line"/>
      <point x="240" y="809" type="line"/>
      <point x="411" y="645" type="line"/>
    </contour>
  </outline>
</glyph>
<glyph name="AE" format="1">
  <advance width="1342"/>
  <unicode hex="00C6"/>
  <outline>
    <contour>
      <point x="286" y="187" type="line"/>
      <point x="677" y="187" type="line"/>
      <point x="677" y="391" type="line"/>
      <point x="286" y="391" type="line"/>
    </contour>
    <contour>
      <point x="608" y="0" type="line"/>
      <point x="1318" y="0" type="line"/>
      <point x="1318" y="250" type="line"/>
      <point x="940" y="240" type="line"/>
      <point x="940" y="506" type="line"/>
      <point x="1210" y="486" type="line"/>
      <point x="1210" y="720" type="line"/>
      <point x="940" y="720" type="line"/>
      <point x="940" y="946" type="line"/>
      <point x="1283" y="936" type="line"/>
      <point x="1303" y="1172" type="line"/>
      <point x="428" y="1172" type="line"/>
      <point x="452" y="1091" type="line"/>
      <point x="-19" y="0" type="line"/>
      <point x="275" y="0" type="line"/>
      <point x="608" y="828" type="line"/>
    </contour>
  </outline>
</glyph>
<glyph name="Thorn" format="1">
  <advance width="938"/>
  <unicode hex="00DE"/>
  <outline>
    <contour>
      <point x="446" y="849" type="line" smooth="yes"/>
      <point x="550" y="849"/>
      <point x="601" y="777"/>
      <point x="601" y="683" type="curve" smooth="yes"/>
      <point x="601" y="535" type="line" smooth="yes"/>
      <point x="601" y="401"/>
      <point x="540" y="329"/>
      <point x="435" y="329" type="curve" smooth="yes"/>
      <point x="398" y="329" type="line"/>
      <point x="398" y="849" type="line"/>
    </contour>
    <contour>
      <point x="398" y="0" type="line"/>
      <point x="398" y="118" type="line"/>
      <point x="428" y="116"/>
      <point x="482" y="112"/>
      <point x="536" y="112" type="curve" smooth="yes"/>
      <point x="741" y="112"/>
      <point x="929" y="298"/>
      <point x="929" y="639" type="curve" smooth="yes"/>
      <point x="929" y="916"/>
      <point x="792" y="1051"/>
      <point x="535" y="1051" type="curve" smooth="yes"/>
      <point x="479" y="1051"/>
      <point x="430" y="1049"/>
      <point x="384" y="1047" type="curve"/>
      <point x="384" y="1171" type="line"/>
      <point x="67" y="1171" type="line"/>
      <point x="67" y="0" type="line"/>
    </contour>
  </outline>
</glyph>
<glyph name="germandbls" format="1">
  <advance width="1066"/>
  <unicode hex="00DF"/>
  <outline>
    <contour>
      <point x="760" y="723" type="curve"/>
      <point x="857" y="774"/>
      <point x="965" y="853"/>
      <point x="965" y="1013" type="curve" smooth="yes"/>
      <point x="965" y="1187"/>
      <point x="889" y="1304"/>
      <point x="624" y="1304" type="curve" smooth="yes"/>
      <point x="308" y="1304"/>
      <point x="91" y="1189"/>
      <point x="89" y="792" type="curve"/>
      <point x="88" y="168" type="line"/>
      <point x="18" y="0" type="line"/>
      <point x="403" y="0" type="line"/>
      <point x="403" y="583" type="line" smooth="yes"/>
      <point x="403" y="922"/>
      <point x="431" y="1146"/>
      <point x="548" y="1146" type="curve" smooth="yes"/>
      <point x="621" y="1146"/>
      <point x="647" y="1071"/>
      <point x="647" y="1016" type="curve" smooth="yes"/>
      <point x="647" y="954" type="line" smooth="yes"/>
      <point x="647" y="818"/>
      <point x="606" y="776"/>
      <point x="557" y="776" type="curve" smooth="yes"/>
      <point x="526" y="776" type="line"/>
      <point x="526" y="593" type="line"/>
      <point x="568" y="593" type="line" smooth="yes"/>
      <point x="627" y="593"/>
      <point x="674" y="539"/>
      <point x="674" y="475" type="curve" smooth="yes"/>
      <point x="674" y="386" type="line" smooth="yes"/>
      <point x="674" y="254"/>
      <point x="643" y="168"/>
      <point x="526" y="168" type="curve"/>
      <point x="526" y="0" type="line"/>
      <point x="937" y="0"/>
      <point x="1006" y="203"/>
      <point x="1006" y="405" type="curve" smooth="yes"/>
      <point x="1006" y="560"/>
      <point x="892" y="723"/>
    </contour>
  </outline>
</glyph>
<glyph name="ae" format="1">
  <advance width="1315"/>
  <unicode hex="00E6"/>
  <outline>
    <contour>
      <point x="828" y="369" type="line"/>
      <point x="1285" y="369" type="line"/>
      <point x="1285" y="480" type="line" smooth="yes"/>
      <point x="1285" y="750"/>
      <point x="1183" y="870"/>
      <point x="918" y="870" type="curve" smooth="yes"/>
      <point x="825" y="870"/>
      <point x="744" y="852"/>
      <point x="679" y="816" type="curve"/>
      <point x="625" y="854"/>
      <point x="548" y="870"/>
      <point x="443" y="870" type="curve" smooth="yes"/>
      <point x="280" y="870"/>
      <point x="123" y="810"/>
      <point x="44" y="759" type="curve"/>
      <point x="108" y="623" type="line"/>
      <point x="157" y="649"/>
      <point x="257" y="672"/>
      <point x="342" y="672" type="curve" smooth="yes"/>
      <point x="437" y="672"/>
      <point x="479" y="643"/>
      <point x="479" y="561" type="curve" smooth="yes"/>
      <point x="479" y="543" type="line"/>
      <point x="337" y="543"/>
      <point x="10" y="498"/>
      <point x="10" y="246" type="curve" smooth="yes"/>
      <point x="10" y="62"/>
      <point x="108" y="-21"/>
      <point x="280" y="-21" type="curve" smooth="yes"/>
      <point x="414" y="-21"/>
      <point x="518" y="84"/>
      <point x="551" y="143" type="curve"/>
      <point x="614" y="43"/>
      <point x="724" y="-21"/>
      <point x="901" y="-21" type="curve" smooth="yes"/>
      <point x="1006" y="-21"/>
      <point x="1194" y="18"/>
      <point x="1273" y="148" type="curve"/>
      <point x="1214" y="249" type="line"/>
      <point x="1156" y="195"/>
      <point x="1055" y="167"/>
      <point x="987" y="167" type="curve" smooth="yes"/>
      <point x="905" y="167"/>
      <point x="826" y="187"/>
      <point x="828" y="350" type="curve" smooth="yes"/>
    </contour>
    <contour>
      <point x="920" y="750" type="curve" smooth="yes"/>
      <point x="967" y="750"/>
      <point x="981" y="683"/>
      <point x="981" y="517" type="curve"/>
      <point x="828" y="517" type="line"/>
      <point x="828" y="546"/>
      <point x="827" y="575"/>
      <point x="827" y="601" type="curve" smooth="yes"/>
      <point x="827" y="686"/>
      <point x="837" y="750"/>
    </contour>
    <contour>
      <point x="479" y="177" type="line"/>
      <point x="476" y="177"/>
      <point x="461" y="155"/>
      <point x="431" y="155" type="curve" smooth="yes"/>
      <point x="363" y="155"/>
      <point x="346" y="217"/>
      <point x="346" y="280" type="curve" smooth="yes"/>
      <point x="346" y="378"/>
      <point x="403" y="417"/>
      <point x="479" y="417" type="curve"/>
    </contour>
  </outline>
</glyph>
<glyph name="eth" format="1">
  <advance width="1106"/>
  <unicode hex="00F0"/>
  <outline>
    <contour>
      <point x="897" y="1304" type="line"/>
      <point x="831" y="1394" type="line"/>
      <point x="602" y="1226" type="line"/>
      <point x="505" y="1165" type="line"/>
      <point x="308" y="1034" type="line"/>
      <point x="374" y="946" type="line"/>
      <point x="594" y="1104" type="line"/>
      <point x="692" y="1162" type="line"/>
    </contour>
    <contour>
      <point x="630" y="424" type="line"/>
      <point x="630" y="244"/>
      <point x="588" y="178"/>
      <point x="542" y="178" type="curve" smooth="yes"/>
      <point x="488" y="178"/>
      <point x="429" y="270"/>
      <point x="429" y="374" type="curve" smooth="yes"/>
      <point x="429" y="514" type="line" smooth="yes"/>
      <point x="429" y="645"/>
      <point x="470" y="719"/>
      <point x="565" y="719" type="curve" smooth="yes"/>
      <point x="584" y="719"/>
      <point x="605" y="716"/>
      <point x="628" y="710" type="curve"/>
      <point x="654" y="788" type="line"/>
      <point x="654" y="788"/>
      <point x="570" y="858"/>
      <point x="416" y="858" type="curve" smooth="yes"/>
      <point x="191" y="858"/>
      <point x="81" y="661"/>
      <point x="81" y="415" type="curve" smooth="yes"/>
      <point x="81" y="161"/>
      <point x="271" y="-20"/>
      <point x="602" y="-20" type="curve" smooth="yes"/>
      <point x="895" y="-20"/>
      <point x="1019" y="237"/>
      <point x="1019" y="571" type="curve" smooth="yes"/>
      <point x="1019" y="1012"/>
      <point x="693" y="1344"/>
      <point x="330" y="1344" type="curve" smooth="yes"/>
      <point x="307" y="1344"/>
      <point x="285" y="1343"/>
      <point x="262" y="1340" type="curve"/>
      <point x="249" y="1207" type="line"/>
      <point x="391" y="1170"/>
      <point x="625" y="1161"/>
      <point x="630" y="779" type="curve" smooth="yes"/>
      <point x="632" y="612" type="line"/>
    </contour>
  </outline>
</glyph>
<glyph name="hbar" format="1">
  <advance width="936"/>
  <unicode hex="0127"/>
  <outline>
    <contour>
      <point x="-44" y="1075" type="line"/>
      <point x="-44" y="934" type="line"/>
      <point x="554" y="934" type="line"/>
      <point x="554" y="1075" type="line"/>
    </contour>
    <component base="h"/>
  </outline>
</glyph>
<glyph name="Lslash" format="1">
  <advance width="722"/>
  <unicode hex="0141"/>
  <outline>
    <contour>
      <point x="-74" y="482" type="line"/>
      <point x="-74" y="291" type="line"/>
      <point x="564" y="660" type="line"/>
      <point x="564" y="851" type="line"/>
    </contour>
    <component base="L"/>
  </outline>
</glyph>
<glyph name="Eng" format="1">
  <advance width="1083"/>
  <unicode hex="014A"/>
  <outline>
    <contour>
      <point x="697" y="858" type="line"/>
      <point x="746" y="413" type="line"/>
      <point x="570" y="792" type="line"/>
      <point x="386" y="1172" type="line"/>
      <point x="18" y="1172" type="line"/>
      <point x="67" y="1078" type="line"/>
      <point x="67" y="0" type="line"/>
      <point x="385" y="0" type="line"/>
      <point x="385" y="369" type="line"/>
      <point x="326" y="753" type="line"/>
      <point x="473" y="463" type="line"/>
      <point x="711" y="0" type="line"/>
      <point x="761" y="0" type="line"/>
      <point x="761" y="-16" type="line" smooth="yes"/>
      <point x="761" y="-156"/>
      <point x="639" y="-196"/>
      <point x="574" y="-196" type="curve" smooth="yes"/>
      <point x="529" y="-196"/>
      <point x="510" y="-188"/>
      <point x="469" y="-166" type="curve"/>
      <point x="472" y="-393" type="line"/>
      <point x="495" y="-415"/>
      <point x="576" y="-452"/>
      <point x="684" y="-452" type="curve" smooth="yes"/>
      <point x="961" y="-452"/>
      <point x="1016" y="-273"/>
      <point x="1016" y="-57" type="curve" smooth="yes"/>
      <point x="1016" y="1172" type="line"/>
      <point x="697" y="1172" type="line"/>
    </contour>
  </outline>
</glyph>
<glyph name="tbar" format="1">
  <advance width="570"/>
  <unicode hex="0167"/>
  <outline>
    <contour>
      <point x="569" y="345" type="line"/>
      <point x="569" y="509" type="line"/>
      <point x="-1" y="509" type="line"/>
      <point x="-1" y="345" type="line"/>
    </contour>
    <component base="t"/>
  </outline>
</glyph>
<glyph name="uni0259" format="1">
  <advance width="861"/>
  <unicode hex="0259"/>
  <outline>
    <contour>
      <point x="488" y="480" type="line"/>
      <point x="31" y="480" type="line"/>
      <point x="31" y="369" type="line" smooth="yes"/>
      <point x="31" y="99"/>
      <point x="133" y="-21"/>
      <point x="398" y="-21" type="curve" smooth="yes"/>
      <point x="666" y="-21"/>
      <point x="831" y="128"/>
      <point x="831" y="433" type="curve" smooth="yes"/>
      <point x="831" y="673"/>
      <point x="724" y="870"/>
      <point x="415" y="870" type="curve" smooth="yes"/>
      <point x="310" y="870"/>
      <point x="122" y="831"/>
      <point x="43" y="701" type="curve"/>
      <point x="102" y="600" type="line"/>
      <point x="160" y="654"/>
      <point x="261" y="682"/>
      <point x="329" y="682" type="curve" smooth="yes"/>
      <point x="411" y="682"/>
      <point x="490" y="662"/>
      <point x="488" y="499" type="curve" smooth="yes"/>
    </contour>
    <contour>
      <point x="396" y="99" type="curve" smooth="yes"/>
      <point x="349" y="99"/>
      <point x="335" y="166"/>
      <point x="335" y="332" type="curve"/>
      <point x="488" y="332" type="line"/>
      <point x="488" y="210"/>
      <point x="505" y="99"/>
    </contour>
  </outline>
</glyph>
<glyph name="uni02BF" format="1">
  <advance width="399"/>
  <unicode hex="02BF"/>
  <outline>
    <contour>
      <point x="349" y="1340" type="line"/>
      <point x="349" y="1478" type="line"/>
      <point x="349" y="1478"/>
      <point x="346" y="1478"/>
      <point x="339" y="1478" type="curve" smooth="yes"/>
      <point x="288" y="1478"/>
      <point x="50" y="1465"/>
      <point x="50" y="1232" type="curve" smooth="yes"/>
      <point x="50" y="1023"/>
      <point x="237" y="985"/>
      <point x="318" y="985" type="curve"/>
      <point x="349" y="986" type="line"/>
      <point x="349" y="1125" type="line"/>
      <point x="349" y="1125"/>
      <point x="343" y="1124"/>
      <point x="335" y="1124" type="curve" smooth="yes"/>
      <point x="302" y="1124"/>
      <point x="223" y="1134"/>
      <point x="223" y="1232" type="curve" smooth="yes"/>
      <point x="223" y="1324"/>
      <point x="295" y="1341"/>
      <point x="330" y="1341" type="curve" smooth="yes"/>
      <point x="332" y="1341"/>
      <point x="334" y="1341"/>
      <point x="336" y="1341" type="curve"/>
    </contour>
  </outline>
</glyph>
<glyph name="circumflex" format="1">
  <advance width="642"/>
  <unicode hex="02C6"/>
  <outline>
    <contour>
      <point x="244" y="1296" type="line"/>
      <point x="50" y="966" type="line"/>
      <point x="233" y="966" type="line"/>
      <point x="321" y="1112" type="line"/>
      <point x="409" y="966" type="line"/>
      <point x="592" y="966" type="line"/>
      <point x="398" y="1296" type="line"/>
    </contour>
  </outline>
</glyph>
<glyph name="uni02CC" format="1">
  <advance width="305"/>
  <unicode hex="02CC"/>
  <outline>
    <contour>
      <point x="50" y="-584" type="line"/>
      <point x="255" y="-584" type="line"/>
      <point x="255" y="-154" type="line"/>
      <point x="50" y="-154" type="line"/>
    </contour>
  </outline>
</glyph>
<glyph name="breve" format="1">
  <advance width="636"/>
  <unicode hex="02D8"/>
  <outline>
    <contour>
      <point x="318" y="986" type="curve" smooth="yes"/>
      <point x="526" y="986"/>
      <point x="588" y="1174"/>
      <point x="585" y="1261" type="curve" smooth="yes"/>
      <point x="584" y="1295" type="line"/>
      <point x="445" y="1295" type="line"/>
      <point x="445" y="1295"/>
      <point x="446" y="1289"/>
      <point x="446" y="1281" type="curve" smooth="yes"/>
      <point x="446" y="1248"/>
      <point x="416" y="1190"/>
      <point x="318" y="1190" type="curve" smooth="yes"/>
      <point x="220" y="1190"/>
      <point x="190" y="1248"/>
      <point x="190" y="1281" type="curve" smooth="yes"/>
      <point x="190" y="1289"/>
      <point x="191" y="1295"/>
      <point x="191" y="1295" type="curve"/>
      <point x="52" y="1295" type="line"/>
      <point x="51" y="1261" type="line" smooth="yes"/>
      <point x="48" y="1174"/>
      <point x="110" y="986"/>
    </contour>
  </outline>
</glyph>
<glyph name="ogonek" format="1">
  <advance width="603"/>
  <unicode hex="02DB"/>
  <outline>
    <contour>
      <point x="264" y="-180" type="curve" smooth="yes"/>
      <point x="264" y="-56"/>
      <point x="321" y="-1"/>
      <point x="361" y="36" type="curve"/>
      <point x="257" y="36" type="line"/>
      <point x="141" y="-39"/>
      <point x="50" y="-156"/>
      <point x="50" y="-296" type="curve" smooth="yes"/>
      <point x="50" y="-405"/>
      <point x="141" y="-533"/>
      <point x="334" y="-533" type="curve" smooth="yes"/>
      <point x="446" y="-533"/>
      <point x="539" y="-450"/>
      <point x="553" y="-434" type="curve"/>
      <point x="515" y="-282" type="line"/>
      <point x="505" y="-294"/>
      <point x="427" y="-302"/>
      <point x="412" y="-302" type="curve" smooth="yes"/>
      <point x="357" y="-302"/>
      <point x="264" y="-290"/>
    </contour>
  </outline>
</glyph>
<glyph name="hungarumlaut" format="1">
  <advance width="721"/>
  <unicode hex="02DD"/>
  <outline>
    <contour>
      <point x="298" y="966" type="line"/>
      <point x="432" y="966" type="line"/>
      <point x="671" y="1294" type="line"/>
      <point x="448" y="1294" type="line"/>
    </contour>
    <contour>
      <point x="50" y="966" type="line"/>
      <point x="184" y="966" type="line"/>
      <point x="383" y="1294" type="line"/>
      <point x="160" y="1294" type="line"/>
    </contour>
  </outline>
</glyph>
<glyph name="uni0300" format="1">
  <unicode hex="0300"/>
  <outline>
    <contour>
      <point x="-306" y="1296" type="line"/>
      <point x="-67" y="966" type="line"/>
      <point x="97" y="966" type="line"/>
      <point x="-43" y="1296" type="line"/>
    </contour>
  </outline>
</glyph>
<glyph name="uni0303" format="1">
  <unicode hex="0303"/>
  <outline>
    <contour>
      <point x="225" y="1274" type="line" smooth="yes"/>
      <point x="225" y="1222"/>
      <point x="205" y="1188"/>
      <point x="159" y="1188" type="curve" smooth="yes"/>
      <point x="80" y="1188"/>
      <point x="-3" y="1300"/>
      <point x="-145" y="1300" type="curve" smooth="yes"/>
      <point x="-251" y="1300"/>
      <point x="-362" y="1248"/>
      <point x="-362" y="1039" type="curve" smooth="yes"/>
      <point x="-362" y="977" type="line"/>
      <point x="-225" y="977" type="line"/>
      <point x="-225" y="1004" type="line" smooth="yes"/>
      <point x="-225" y="1046"/>
      <point x="-207" y="1089"/>
      <point x="-165" y="1089" type="curve" smooth="yes"/>
      <point x="-93" y="1089"/>
      <point x="49" y="978"/>
      <point x="146" y="978" type="curve" smooth="yes"/>
      <point x="286" y="978"/>
      <point x="362" y="1040"/>
      <point x="362" y="1239" type="curve" smooth="yes"/>
      <point x="362" y="1300" type="line"/>
      <point x="225" y="1300" type="line"/>
    </contour>
  </outline>
</glyph>
<glyph name="uni0304" format="1">
  <unicode hex="0304"/>
  <outline>
    <contour>
      <point x="298" y="1026" type="line"/>
      <point x="298" y="1256" type="line"/>
      <point x="-297" y="1256" type="line"/>
      <point x="-297" y="1026" type="line"/>
    </contour>
  </outline>
</glyph>
<glyph name="uni0307" format="1">
  <unicode hex="0307"/>
  <outline>
    <contour>
      <point x="-17" y="1306" type="line"/>
      <point x="-181" y="1142" type="line"/>
      <point x="-181" y="1107" type="line"/>
      <point x="-17" y="942" type="line"/>
      <point x="21" y="942" type="line"/>
      <point x="192" y="1107" type="line"/>
      <point x="192" y="1142" type="line"/>
      <point x="21" y="1306" type="line"/>
    </contour>
  </outline>
</glyph>
<glyph name="uni030A" format="1">
  <unicode hex="030A"/>
  <outline>
    <contour>
      <point x="218" y="1203" type="curve" smooth="yes"/>
      <point x="218" y="1323"/>
      <point x="120" y="1421"/>
      <point x="0" y="1421" type="curve" smooth="yes"/>
      <point x="-120" y="1421"/>
      <point x="-218" y="1323"/>
      <point x="-218" y="1203" type="curve" smooth="yes"/>
      <point x="-218" y="1083"/>
      <point x="-118" y="986"/>
      <point x="0" y="986" type="curve" smooth="yes"/>
      <point x="118" y="986"/>
      <point x="218" y="1083"/>
    </contour>
    <contour>
      <point x="114" y="1203" type="curve" smooth="yes"/>
      <point x="114" y="1142"/>
      <point x="65" y="1089"/>
      <point x="0" y="1089" type="curve" smooth="yes"/>
      <point x="-63" y="1089"/>
      <point x="-114" y="1140"/>
      <point x="-114" y="1203" type="curve" smooth="yes"/>
      <point x="-114" y="1264"/>
      <point x="-64" y="1319"/>
      <point x="0" y="1319" type="curve" smooth="yes"/>
      <point x="61" y="1319"/>
      <point x="114" y="1264"/>
    </contour>
  </outline>
</glyph>
<glyph name="uni030B" format="1">
  <unicode hex="030B"/>
  <outline>
    <contour>
      <point x="88" y="966" type="line"/>
      <point x="222" y="966" type="line"/>
      <point x="461" y="1294" type="line"/>
      <point x="238" y="1294" type="line"/>
    </contour>
    <contour>
      <point x="-260" y="966" type="line"/>
      <point x="-126" y="966" type="line"/>
      <point x="73" y="1294" type="line"/>
      <point x="-150" y="1294" type="line"/>
    </contour>
  </outline>
</glyph>
<glyph name="uni0324" format="1">
  <unicode hex="0324"/>
  <outline>
    <contour>
      <point x="-212" y="-135" type="line"/>
      <point x="-358" y="-281" type="line"/>
      <point x="-358" y="-312" type="line"/>
      <point x="-212" y="-458" type="line"/>
      <point x="-179" y="-458" type="line"/>
      <point x="-27" y="-312" type="line"/>
      <point x="-27" y="-281" type="line"/>
      <point x="-179" y="-135" type="line"/>
    </contour>
    <contour>
      <point x="173" y="-135" type="line"/>
      <point x="27" y="-281" type="line"/>
      <point x="27" y="-312" type="line"/>
      <point x="173" y="-458" type="line"/>
      <point x="207" y="-458" type="line"/>
      <point x="359" y="-312" type="line"/>
      <point x="359" y="-281" type="line"/>
      <point x="207" y="-135" type="line"/>
    </contour>
  </outline>
</glyph>
<glyph name="uni0326" format="1">
  <unicode hex="0326"/>
  <outline>
    <contour>
      <point x="-40" y="-120" type="line"/>
      <point x="-204" y="-284" type="line"/>
      <point x="-204" y="-319" type="line"/>
      <point x="-63" y="-461" type="line"/>
      <point x="-82" y="-560"/>
      <point x="-147" y="-635"/>
      <point x="-178" y="-662" type="curve"/>
      <point x="-40" y="-713" type="line"/>
      <point x="106" y="-587"/>
      <point x="169" y="-419"/>
      <point x="169" y="-319" type="curve" smooth="yes"/>
      <point x="169" y="-284" type="line"/>
      <point x="-2" y="-120" type="line"/>
    </contour>
  </outline>
</glyph>
<glyph name="uni0328" format="1">
  <unicode hex="0328"/>
  <outline>
    <contour>
      <point x="55" y="-180" type="curve" smooth="yes"/>
      <point x="55" y="-56"/>
      <point x="112" y="-1"/>
      <point x="152" y="36" type="curve"/>
      <point x="48" y="36" type="line"/>
      <point x="-68" y="-39"/>
      <point x="-159" y="-156"/>
      <point x="-159" y="-296" type="curve" smooth="yes"/>
      <point x="-159" y="-405"/>
      <point x="-68" y="-533"/>
      <point x="125" y="-533" type="curve" smooth="yes"/>
      <point x="237" y="-533"/>
      <point x="330" y="-450"/>
      <point x="344" y="-434" type="curve"/>
      <point x="306" y="-282" type="line"/>
      <point x="296" y="-294"/>
      <point x="218" y="-302"/>
      <point x="203" y="-302" type="curve" smooth="yes"/>
      <point x="148" y="-302"/>
      <point x="55" y="-290"/>
    </contour>
  </outline>
</glyph>
<glyph name="uni032E" format="1">
  <unicode hex="032E"/>
  <outline>
    <contour>
      <point x="0" y="-419" type="curve" smooth="yes"/>
      <point x="208" y="-419"/>
      <point x="270" y="-231"/>
      <point x="267" y="-144" type="curve" smooth="yes"/>
      <point x="266" y="-110" type="line"/>
      <point x="127" y="-110" type="line"/>
      <point x="127" y="-110"/>
      <point x="128" y="-116"/>
      <point x="128" y="-124" type="curve" smooth="yes"/>
      <point x="128" y="-157"/>
      <point x="98" y="-215"/>
      <point x="0" y="-215" type="curve" smooth="yes"/>
      <point x="-98" y="-215"/>
      <point x="-128" y="-157"/>
      <point x="-128" y="-124" type="curve" smooth="yes"/>
      <point x="-128" y="-116"/>
      <point x="-127" y="-110"/>
      <point x="-127" y="-110" type="curve"/>
      <point x="-266" y="-110" type="line"/>
      <point x="-267" y="-144" type="line" smooth="yes"/>
      <point x="-270" y="-231"/>
      <point x="-208" y="-419"/>
    </contour>
  </outline>
</glyph>
<glyph name="uni200D" format="1">
  <unicode hex="200D"/>
  <outline>
    <contour>
      <point x="82" y="1289" type="line"/>
      <point x="0" y="1173" type="line"/>
      <point x="-83" y="1289" type="line"/>
      <point x="-249" y="1289" type="line"/>
      <point x="-84" y="1056" type="line"/>
      <point x="-248" y="822" type="line"/>
      <point x="-82" y="822" type="line"/>
      <point x="0" y="938" type="line"/>
      <point x="82" y="822" type="line"/>
      <point x="248" y="822" type="line"/>
      <point x="83" y="1056" type="line"/>
      <point x="248" y="1289" type="line"/>
    </contour>
    <contour>
      <point x="80" y="0" type="line"/>
      <point x="80" y="767" type="line"/>
      <point x="-81" y="767" type="line"/>
      <point x="-81" y="0" type="line"/>
    </contour>
  </outline>
</glyph>
<glyph name="uni200E" format="1">
  <unicode hex="200E"/>
  <outline>
    <contour>
      <point x="77" y="767" type="line"/>
      <point x="-84" y="767" type="line"/>
      <point x="-84" y="0" type="line"/>
      <point x="77" y="0" type="line"/>
    </contour>
    <contour>
      <point x="-191" y="1124" type="line"/>
      <point x="-75" y="1289" type="line"/>
      <point x="-241" y="1289" type="line"/>
      <point x="-406" y="1056" type="line"/>
      <point x="-241" y="822" type="line"/>
      <point x="-75" y="822" type="line"/>
      <point x="-191" y="988" type="line"/>
      <point x="77" y="988" type="line"/>
      <point x="77" y="1124" type="line"/>
    </contour>
  </outline>
</glyph>
<glyph name="uni200F" format="1">
  <unicode hex="200F"/>
  <outline>
    <contour>
      <point x="65" y="0" type="line"/>
      <point x="65" y="767" type="line"/>
      <point x="-96" y="767" type="line"/>
      <point x="-96" y="0" type="line"/>
    </contour>
    <contour>
      <point x="-96" y="988" type="line"/>
      <point x="172" y="988" type="line"/>
      <point x="56" y="822" type="line"/>
      <point x="222" y="822" type="line"/>
      <point x="387" y="1056" type="line"/>
      <point x="222" y="1289" type="line"/>
      <point x="56" y="1289" type="line"/>
      <point x="172" y="1124" type="line"/>
      <point x="-96" y="1124" type="line"/>
    </contour>
  </outline>
</glyph>
<glyph name="uni2011" format="1">
  <advance width="677"/>
  <unicode hex="2011"/>
  <outline>
    <contour>
      <point x="80" y="595" type="line"/>
      <point x="80" y="394" type="line"/>
      <point x="597" y="394" type="line"/>
      <point x="597" y="595" type="line"/>
    </contour>
  </outline>
</glyph>
<glyph name="emdash" format="1">
  <advance width="1528"/>
  <unicode hex="2014"/>
  <outline>
    <contour>
      <point x="80" y="715" type="line"/>
      <point x="80" y="464" type="line"/>
      <point x="1448" y="464" type="line"/>
      <point x="1448" y="715" type="line"/>
    </contour>
  </outline>
</glyph>
<glyph name="quoteleft" format="1">
  <advance width="483"/>
  <unicode hex="2018"/>
  <outline>
    <contour>
      <point x="393" y="1338" type="line"/>
      <point x="219" y="1338" type="line"/>
      <point x="70" y="654" type="line"/>
      <point x="333" y="654" type="line"/>
    </contour>
  </outline>
</glyph>
<glyph name="quotereversed" format="1">
  <advance width="483"/>
  <unicode hex="201B"/>
  <outline>
    <contour>
      <point x="353" y="1338" type="line"/>
      <point x="90" y="1338" type="line"/>
      <point x="239" y="654" type="line"/>
      <point x="413" y="654" type="line"/>
    </contour>
  </outline>
</glyph>
<glyph name="onedotenleader" format="1">
  <advance width="409"/>
  <unicode hex="2024"/>
  <outline>
    <contour>
      <point x="88" y="281" type="curve" smooth="yes"/>
      <point x="56" y="249"/>
      <point x="40" y="210"/>
      <point x="40" y="165" type="curve" smooth="yes"/>
      <point x="40" y="120"/>
      <point x="56" y="81"/>
      <point x="88" y="48" type="curve"/>
      <point x="121" y="16"/>
      <point x="160" y="0"/>
      <point x="205" y="0" type="curve" smooth="yes"/>
      <point x="250" y="0"/>
      <point x="289" y="16"/>
      <point x="321" y="48" type="curve" smooth="yes"/>
      <point x="353" y="81"/>
      <point x="369" y="120"/>
      <point x="369" y="165" type="curve" smooth="yes"/>
      <point x="369" y="210"/>
      <point x="353" y="249"/>
      <point x="321" y="281" type="curve" smooth="yes"/>
      <point x="289" y="313"/>
      <point x="250" y="329"/>
      <point x="205" y="329" type="curve" smooth="yes"/>
      <point x="160" y="329"/>
      <point x="121" y="313"/>
    </contour>
  </outline>
</glyph>
<glyph name="ellipsis" format="1">
  <advance width="1227"/>
  <unicode hex="2026"/>
  <outline>
    <contour>
      <point x="180" y="345" type="line"/>
      <point x="16" y="181" type="line"/>
      <point x="16" y="146" type="line"/>
      <point x="180" y="-19" type="line"/>
      <point x="218" y="-19" type="line"/>
      <point x="389" y="146" type="line"/>
      <point x="389" y="181" type="line"/>
      <point x="218" y="345" type="line"/>
    </contour>
    <contour>
      <point x="589" y="345" type="line"/>
      <point x="425" y="181" type="line"/>
      <point x="425" y="146" type="line"/>
      <point x="589" y="-19" type="line"/>
      <point x="627" y="-19" type="line"/>
      <point x="798" y="146" type="line"/>
      <point x="798" y="181" type="line"/>
      <point x="627" y="345" type="line"/>
    </contour>
    <contour>
      <point x="998" y="345" type="line"/>
      <point x="834" y="181" type="line"/>
      <point x="834" y="146" type="line"/>
      <point x="998" y="-19" type="line"/>
      <point x="1036" y="-19" type="line"/>
      <point x="1207" y="146" type="line"/>
      <point x="1207" y="181" type="line"/>
      <point x="1036" y="345" type="line"/>
    </contour>
  </outline>
</glyph>
<glyph name="uni202B" format="1">
  <unicode hex="202B"/>
  <outline>
    <contour>
      <point x="-331" y="1484" type="line"/>
      <point x="0" y="1289" type="line"/>
      <point x="0" y="1443" type="line"/>
      <point x="-146" y="1532" type="line"/>
      <point x="0" y="1620" type="line"/>
      <point x="0" y="1774" type="line"/>
      <point x="-331" y="1579" type="line"/>
    </contour>
  </outline>
</glyph>
<glyph name="perthousand" format="1">
  <advance width="2669"/>
  <unicode hex="2030"/>
  <outline>
    <contour>
      <point x="1471" y="1170" type="line"/>
      <point x="1227" y="1170" type="line"/>
      <point x="419" y="0" type="line"/>
      <point x="664" y="0" type="line"/>
    </contour>
    <contour>
      <point x="430" y="1169" type="curve" smooth="yes"/>
      <point x="141" y="1169"/>
      <point x="60" y="1029"/>
      <point x="60" y="784" type="curve" smooth="yes"/>
      <point x="60" y="527"/>
      <point x="152" y="415"/>
      <point x="419" y="415" type="curve" smooth="yes"/>
      <point x="697" y="415"/>
      <point x="792" y="538"/>
      <point x="792" y="796" type="curve" smooth="yes"/>
      <point x="792" y="1040"/>
      <point x="710" y="1169"/>
    </contour>
    <contour>
      <point x="496" y="632" type="line" smooth="yes"/>
      <point x="496" y="561"/>
      <point x="477" y="517"/>
      <point x="425" y="517" type="curve" smooth="yes"/>
      <point x="375" y="517"/>
      <point x="354" y="567"/>
      <point x="354" y="676" type="curve" smooth="yes"/>
      <point x="354" y="952" type="line" smooth="yes"/>
      <point x="354" y="1025"/>
      <point x="376" y="1064"/>
      <point x="425" y="1064" type="curve" smooth="yes"/>
      <point x="479" y="1064"/>
      <point x="496" y="1007"/>
      <point x="496" y="900" type="curve" smooth="yes"/>
    </contour>
    <contour>
      <point x="1460" y="732" type="curve" smooth="yes"/>
      <point x="1171" y="732"/>
      <point x="1090" y="592"/>
      <point x="1090" y="347" type="curve" smooth="yes"/>
      <point x="1090" y="90"/>
      <point x="1182" y="-22"/>
      <point x="1449" y="-22" type="curve" smooth="yes"/>
      <point x="1727" y="-22"/>
      <point x="1822" y="101"/>
      <point x="1822" y="359" type="curve" smooth="yes"/>
      <point x="1822" y="603"/>
      <point x="1740" y="732"/>
    </contour>
    <contour>
      <point x="1526" y="195" type="line" smooth="yes"/>
      <point x="1526" y="124"/>
      <point x="1507" y="80"/>
      <point x="1455" y="80" type="curve" smooth="yes"/>
      <point x="1405" y="80"/>
      <point x="1384" y="130"/>
      <point x="1384" y="239" type="curve" smooth="yes"/>
      <point x="1384" y="515" type="line" smooth="yes"/>
      <point x="1384" y="588"/>
      <point x="1406" y="627"/>
      <point x="1455" y="627" type="curve" smooth="yes"/>
      <point x="1509" y="627"/>
      <point x="1526" y="570"/>
      <point x="1526" y="463" type="curve" smooth="yes"/>
    </contour>
    <contour>
      <point x="2247" y="732" type="curve" smooth="yes"/>
      <point x="1958" y="732"/>
      <point x="1877" y="592"/>
      <point x="1877" y="347" type="curve" smooth="yes"/>
      <point x="1877" y="90"/>
      <point x="1969" y="-22"/>
      <point x="2236" y="-22" type="curve" smooth="yes"/>
      <point x="2514" y="-22"/>
      <point x="2609" y="101"/>
      <point x="2609" y="359" type="curve" smooth="yes"/>
      <point x="2609" y="603"/>
      <point x="2527" y="732"/>
    </contour>
    <contour>
      <point x="2313" y="195" type="line" smooth="yes"/>
      <point x="2313" y="124"/>
      <point x="2294" y="80"/>
      <point x="2242" y="80" type="curve" smooth="yes"/>
      <point x="2192" y="80"/>
      <point x="2171" y="130"/>
      <point x="2171" y="239" type="curve" smooth="yes"/>
      <point x="2171" y="515" type="line" smooth="yes"/>
      <point x="2171" y="588"/>
      <point x="2193" y="627"/>
      <point x="2242" y="627" type="curve" smooth="yes"/>
      <point x="2296" y="627"/>
      <point x="2313" y="570"/>
      <point x="2313" y="463" type="curve" smooth="yes"/>
    </contour>
  </outline>
</glyph>
<glyph name="fraction" format="1">
  <advance width="709"/>
  <unicode hex="2044"/>
  <outline>
    <contour>
      <point x="712" y="1289" type="line"/>
      <point x="488" y="1289" type="line"/>
      <point x="-3" y="0" type="line"/>
      <point x="222" y="0" type="line"/>
    </contour>
  </outline>
</glyph>
<glyph name="trademark" format="1">
  <advance width="1715"/>
  <unicode hex="2122"/>
  <outline>
    <contour>
      <point x="78" y="1183" type="line"/>
      <point x="221" y="1181" type="line"/>
      <point x="221" y="603" type="line"/>
      <point x="490" y="603" type="line"/>
      <point x="490" y="1183" type="line"/>
      <point x="633" y="1183" type="line"/>
      <point x="633" y="1352" type="line"/>
      <point x="78" y="1352" type="line"/>
    </contour>
    <contour>
      <point x="1164" y="1100" type="line"/>
      <point x="1140" y="974" type="line"/>
      <point x="1114" y="1101" type="line"/>
      <point x="1058" y="1352" type="line"/>
      <point x="709" y="1352" type="line"/>
      <point x="663" y="603" type="line"/>
      <point x="885" y="603" type="line"/>
      <point x="905" y="1043" type="line"/>
      <point x="909" y="1174" type="line"/>
      <point x="1026" y="678" type="line"/>
      <point x="1199" y="678" type="line"/>
      <point x="1297" y="1174" type="line"/>
      <point x="1305" y="1043" type="line"/>
      <point x="1338" y="603" type="line"/>
      <point x="1583" y="603" type="line"/>
      <point x="1534" y="1352" type="line"/>
      <point x="1214" y="1352" type="line"/>
    </contour>
  </outline>
</glyph>
<glyph name="greaterequal" format="1">
  <advance width="1148"/>
  <unicode hex="2265"/>
  <outline>
    <contour>
      <point x="110" y="201" type="line"/>
      <point x="110" y="0" type="line"/>
      <point x="1038" y="0" type="line"/>
      <point x="1038" y="201" type="line"/>
    </contour>
    <contour>
      <point x="691" y="784" type="line"/>
      <point x="196" y="290" type="line"/>
      <point x="513" y="290" type="line"/>
      <point x="1008" y="784" type="line"/>
      <point x="512" y="1276" type="line"/>
      <point x="198" y="1276" type="line"/>
    </contour>
  </outline>
</glyph>
<glyph name="f_i_trk" format="1">
  <advance width="1009"/>
  <outline>
    <contour>
      <point x="948" y="850" type="line"/>
      <point x="781" y="850" type="line"/>
      <point x="566" y="791" type="line"/>
      <point x="566" y="684" type="line"/>
      <point x="626" y="647" type="line"/>
      <point x="626" y="0" type="line"/>
      <point x="948" y="0" type="line"/>
    </contour>
    <component base="f"/>
  </outline>
</glyph>
<glyph name="five.dnom" format="1">
  <advance width="755"/>
  <outline>
    <contour>
      <point x="289" y="527" type="line"/>
      <point x="622" y="527" type="line"/>
      <point x="678" y="700" type="line"/>
      <point x="115" y="700" type="line"/>
      <point x="62" y="233" type="line"/>
      <point x="140" y="260"/>
      <point x="206" y="271"/>
      <point x="261" y="271" type="curve" smooth="yes"/>
      <point x="383" y="271"/>
      <point x="429" y="221"/>
      <point x="429" y="152" type="curve" smooth="yes"/>
      <point x="429" y="51"/>
      <point x="357" y="15"/>
      <point x="218" y="15" type="curve" smooth="yes"/>
      <point x="173" y="15"/>
      <point x="83" y="36"/>
      <point x="49" y="60" type="curve"/>
      <point x="49" y="-68" type="line"/>
      <point x="123" y="-109"/>
      <point x="207" y="-134"/>
      <point x="294" y="-134" type="curve" smooth="yes"/>
      <point x="570" y="-134"/>
      <point x="693" y="-19"/>
      <point x="693" y="160" type="curve" smooth="yes"/>
      <point x="693" y="343"/>
      <point x="550" y="409"/>
      <point x="398" y="409" type="curve" smooth="yes"/>
      <point x="352" y="409"/>
      <point x="286" y="398"/>
      <point x="255" y="381" type="curve"/>
    </contour>
  </outline>
</glyph>
<glyph name="nine.dnom" format="1">
  <advance width="880"/>
  <outline>
    <contour>
      <point x="110" y="-57" type="line"/>
      <point x="110" y="-61" type="line"/>
      <point x="167" y="-100"/>
      <point x="254" y="-134"/>
      <point x="388" y="-134" type="curve" smooth="yes"/>
      <point x="638" y="-134"/>
      <point x="802" y="68"/>
      <point x="802" y="347" type="curve" smooth="yes"/>
      <point x="802" y="562"/>
      <point x="652" y="712"/>
      <point x="428" y="712" type="curve" smooth="yes"/>
      <point x="214" y="712"/>
      <point x="49" y="597"/>
      <point x="49" y="408" type="curve" smooth="yes"/>
      <point x="49" y="251"/>
      <point x="170" y="130"/>
      <point x="329" y="130" type="curve" smooth="yes"/>
      <point x="382" y="130"/>
      <point x="449" y="145"/>
      <point x="491" y="173" type="curve"/>
      <point x="491" y="144" type="line" smooth="yes"/>
      <point x="491" y="70"/>
      <point x="394" y="7"/>
      <point x="306" y="7" type="curve" smooth="yes"/>
      <point x="280" y="7"/>
      <point x="233" y="0"/>
      <point x="155" y="44" type="curve"/>
    </contour>
    <contour>
      <point x="350" y="513" type="line"/>
      <point x="350" y="544"/>
      <point x="388" y="572"/>
      <point x="426" y="572" type="curve" smooth="yes"/>
      <point x="462" y="572"/>
      <point x="500" y="546"/>
      <point x="500" y="513" type="curve" smooth="yes"/>
      <point x="500" y="319" type="line"/>
      <point x="496" y="291"/>
      <point x="458" y="269"/>
      <point x="425" y="269" type="curve" smooth="yes"/>
      <point x="389" y="269"/>
      <point x="350" y="295"/>
      <point x="350" y="328" type="curve" smooth="yes"/>
    </contour>
  </outline>
</glyph>
<glyph name="nine.numr" format="1">
  <advance width="880"/>
  <outline>
    <contour>
      <point x="110" y="743" type="line"/>
      <point x="110" y="739" type="line"/>
      <point x="167" y="700"/>
      <point x="254" y="666"/>
      <point x="388" y="666" type="curve" smooth="yes"/>
      <point x="638" y="666"/>
      <point x="802" y="868"/>
      <point x="802" y="1147" type="curve" smooth="yes"/>
      <point x="802" y="1362"/>
      <point x="652" y="1512"/>
      <point x="428" y="1512" type="curve" smooth="yes"/>
      <point x="214" y="1512"/>
      <point x="49" y="1397"/>
      <point x="49" y="1208" type="curve" smooth="yes"/>
      <point x="49" y="1051"/>
      <point x="170" y="930"/>
      <point x="329" y="930" type="curve" smooth="yes"/>
      <point x="382" y="930"/>
      <point x="449" y="945"/>
      <point x="491" y="973" type="curve"/>
      <point x="491" y="944" type="line" smooth="yes"/>
      <point x="491" y="870"/>
      <point x="394" y="807"/>
      <point x="306" y="807" type="curve" smooth="yes"/>
      <point x="280" y="807"/>
      <point x="233" y="800"/>
      <point x="155" y="844" type="curve"/>
    </contour>
    <contour>
      <point x="350" y="1313" type="line"/>
      <point x="350" y="1344"/>
      <point x="388" y="1372"/>
      <point x="426" y="1372" type="curve" smooth="yes"/>
      <point x="462" y="1372"/>
      <point x="500" y="1346"/>
      <point x="500" y="1313" type="curve" smooth="yes"/>
      <point x="500" y="1119" type="line"/>
      <point x="496" y="1091"/>
      <point x="458" y="1069"/>
      <point x="425" y="1069" type="curve" smooth="yes"/>
      <point x="389" y="1069"/>
      <point x="350" y="1095"/>
      <point x="350" y="1128" type="curve" smooth="yes"/>
    </contour>
  </outline>
</glyph>
<glyph name="one.dnom" format="1">
  <advance width="524"/>
  <outline>
    <contour>
      <point x="251" y="700" type="line"/>
      <point x="209" y="595"/>
      <point x="117" y="574"/>
      <point x="15" y="561" type="curve"/>
      <point x="15" y="412" type="line"/>
      <point x="160" y="426" type="line"/>
      <point x="160" y="-120" type="line"/>
      <point x="428" y="-120" type="line"/>
      <point x="428" y="700" type="line"/>
    </contour>
  </outline>
</glyph>
<glyph name="radical.rtlm" format="1">
  <advance width="1259"/>
  <outline>
    <contour>
      <point x="0" y="1289" type="line"/>
      <point x="98" y="1289" type="line"/>
      <point x="527" y="0" type="line"/>
      <point x="842" y="0" type="line"/>
      <point x="1045" y="608" type="line"/>
      <point x="1149" y="608" type="line"/>
      <point x="1149" y="795" type="line"/>
      <point x="763" y="794" type="line"/>
      <point x="614" y="346" type="line"/>
      <point x="237" y="1475" type="line"/>
      <point x="0" y="1475" type="line"/>
    </contour>
  </outline>
</glyph>
<glyph name="seven.dnom" format="1">
  <advance width="687"/>
  <outline>
    <contour>
      <point x="32" y="514" type="line"/>
      <point x="466" y="530" type="line"/>
      <point x="282" y="402"/>
      <point x="176" y="136"/>
      <point x="147" y="-120" type="curve"/>
      <point x="471" y="-120" type="line"/>
      <point x="470" y="-95"/>
      <point x="469" y="-70"/>
      <point x="469" y="-45" type="curve" smooth="yes"/>
      <point x="469" y="288"/>
      <point x="586" y="504"/>
      <point x="675" y="573" type="curve"/>
      <point x="630" y="700" type="line"/>
      <point x="32" y="700" type="line"/>
    </contour>
  </outline>
</glyph>
<glyph name="six.dnom" format="1">
  <advance width="864"/>
  <outline>
    <contour>
      <point x="746" y="649" type="line"/>
      <point x="746" y="653" type="line"/>
      <point x="689" y="692"/>
      <point x="618" y="712"/>
      <point x="484" y="712" type="curve" smooth="yes"/>
      <point x="234" y="712"/>
      <point x="54" y="532"/>
      <point x="54" y="252" type="curve" smooth="yes"/>
      <point x="54" y="37"/>
      <point x="204" y="-134"/>
      <point x="428" y="-134" type="curve" smooth="yes"/>
      <point x="642" y="-134"/>
      <point x="807" y="-5"/>
      <point x="807" y="184" type="curve" smooth="yes"/>
      <point x="807" y="341"/>
      <point x="686" y="448"/>
      <point x="527" y="448" type="curve" smooth="yes"/>
      <point x="474" y="448"/>
      <point x="407" y="447"/>
      <point x="365" y="419" type="curve"/>
      <point x="365" y="448" type="line" smooth="yes"/>
      <point x="365" y="523"/>
      <point x="462" y="572"/>
      <point x="550" y="572" type="curve" smooth="yes"/>
      <point x="576" y="572"/>
      <point x="650" y="572"/>
      <point x="701" y="548" type="curve"/>
    </contour>
    <contour>
      <point x="506" y="65" type="line"/>
      <point x="506" y="34"/>
      <point x="468" y="7"/>
      <point x="430" y="7" type="curve" smooth="yes"/>
      <point x="394" y="7"/>
      <point x="356" y="33"/>
      <point x="356" y="65" type="curve" smooth="yes"/>
      <point x="356" y="273" type="line"/>
      <point x="360" y="301"/>
      <point x="398" y="309"/>
      <point x="431" y="309" type="curve" smooth="yes"/>
      <point x="467" y="309"/>
      <point x="506" y="283"/>
      <point x="506" y="250" type="curve"/>
    </contour>
  </outline>
</glyph>
<glyph name="six.numr" format="1">
  <advance width="864"/>
  <outline>
    <contour>
      <point x="746" y="1449" type="line"/>
      <point x="746" y="1453" type="line"/>
      <point x="689" y="1492"/>
      <point x="618" y="1512"/>
      <point x="484" y="1512" type="curve" smooth="yes"/>
      <point x="234" y="1512"/>
      <point x="54" y="1332"/>
      <point x="54" y="1052" type="curve" smooth="yes"/>
      <point x="54" y="837"/>
      <point x="204" y="666"/>
      <point x="428" y="666" type="curve" smooth="yes"/>
      <point x="642" y="666"/>
      <point x="807" y="795"/>
      <point x="807" y="984" type="curve" smooth="yes"/>
      <point x="807" y="1141"/>
      <point x="686" y="1248"/>
      <point x="527" y="1248" type="curve" smooth="yes"/>
      <point x="474" y="1248"/>
      <point x="407" y="1247"/>
      <point x="365" y="1219" type="curve"/>
      <point x="365" y="1248" type="line" smooth="yes"/>
      <point x="365" y="1323"/>
      <point x="462" y="1372"/>
      <point x="550" y="1372" type="curve" smooth="yes"/>
      <point x="576" y="1372"/>
      <point x="650" y="1372"/>
      <point x="701" y="1348" type="curve"/>
    </contour>
    <contour>
      <point x="506" y="865" type="line"/>
      <point x="506" y="834"/>
      <point x="468" y="807"/>
      <point x="430" y="807" type="curve" smooth="yes"/>
      <point x="394" y="807"/>
      <point x="356" y="833"/>
      <point x="356" y="865" type="curve" smooth="yes"/>
      <point x="356" y="1073" type="line"/>
      <point x="360" y="1101"/>
      <point x="398" y="1109"/>
      <point x="431" y="1109" type="curve" smooth="yes"/>
      <point x="467" y="1109"/>
      <point x="506" y="1083"/>
      <point x="506" y="1050" type="curve"/>
    </contour>
  </outline>
</glyph>
<glyph name="three.dnom" format="1">
  <advance width="682"/>
  <outline>
    <contour>
      <point x="422" y="309" type="curve"/>
      <point x="488" y="314"/>
      <point x="612" y="336"/>
      <point x="612" y="478" type="curve" smooth="yes"/>
      <point x="612" y="612"/>
      <point x="523" y="712"/>
      <point x="283" y="712" type="curve" smooth="yes"/>
      <point x="197" y="712"/>
      <point x="116" y="691"/>
      <point x="40" y="649" type="curve"/>
      <point x="40" y="534" type="line"/>
      <point x="77" y="558"/>
      <point x="119" y="571"/>
      <point x="166" y="571" type="curve" smooth="yes"/>
      <point x="256" y="571"/>
      <point x="327" y="539"/>
      <point x="327" y="450" type="curve" smooth="yes"/>
      <point x="327" y="357"/>
      <point x="258" y="340"/>
      <point x="153" y="340" type="curve"/>
      <point x="142" y="340" type="line"/>
      <point x="142" y="244" type="line"/>
      <point x="152" y="244" type="line" smooth="yes"/>
      <point x="155" y="244"/>
      <point x="158" y="244"/>
      <point x="163" y="244" type="curve" smooth="yes"/>
      <point x="258" y="244"/>
      <point x="327" y="215"/>
      <point x="327" y="123" type="curve" smooth="yes"/>
      <point x="327" y="68"/>
      <point x="305" y="6"/>
      <point x="166" y="6" type="curve" smooth="yes"/>
      <point x="119" y="6"/>
      <point x="77" y="19"/>
      <point x="40" y="43" type="curve"/>
      <point x="40" y="-72" type="line"/>
      <point x="114" y="-113"/>
      <point x="195" y="-134"/>
      <point x="283" y="-134" type="curve" smooth="yes"/>
      <point x="524" y="-134"/>
      <point x="644" y="-32"/>
      <point x="644" y="84" type="curve" smooth="yes"/>
      <point x="644" y="229"/>
      <point x="553" y="300"/>
    </contour>
  </outline>
</glyph>
<glyph name="two.dnom" format="1">
  <advance width="792"/>
  <outline>
    <contour>
      <point x="170" y="499" type="line"/>
      <point x="185" y="549"/>
      <point x="229" y="586"/>
      <point x="343" y="586" type="curve" smooth="yes"/>
      <point x="417" y="586"/>
      <point x="454" y="519"/>
      <point x="454" y="465" type="curve" smooth="yes"/>
      <point x="454" y="383"/>
      <point x="380" y="309"/>
      <point x="214" y="189" type="curve" smooth="yes"/>
      <point x="93" y="107"/>
      <point x="58" y="35"/>
      <point x="58" y="-17" type="curve" smooth="yes"/>
      <point x="58" y="-44"/>
      <point x="58" y="-104"/>
      <point x="62" y="-112" type="curve"/>
      <point x="66" y="-120" type="line"/>
      <point x="749" y="-120" type="line"/>
      <point x="749" y="73" type="line"/>
      <point x="269" y="42" type="line"/>
      <point x="417" y="199"/>
      <point x="733" y="256"/>
      <point x="733" y="473" type="curve" smooth="yes"/>
      <point x="733" y="657"/>
      <point x="571" y="712"/>
      <point x="393" y="712" type="curve" smooth="yes"/>
      <point x="180" y="712"/>
      <point x="95" y="644"/>
      <point x="59" y="597" type="curve"/>
    </contour>
    <contour>
      <point x="266" y="619" type="line"/>
      <point x="266" y="619"/>
      <point x="59" y="597"/>
      <point x="59" y="597" type="curve"/>
      <point x="59" y="597"/>
      <point x="71" y="432"/>
      <point x="71" y="432" type="curve"/>
      <point x="217" y="432" type="line"/>
    </contour>
  </outline>
</glyph>
<glyph name="uni0300.cap" format="1">
  <outline>
    <contour>
      <point x="-306" y="1618" type="line"/>
      <point x="-67" y="1288" type="line"/>
      <point x="97" y="1288" type="line"/>
      <point x="-43" y="1618" type="line"/>
    </contour>
  </outline>
</glyph>
<glyph name="uni0307.cap" format="1">
  <outline>
    <contour>
      <point x="-17" y="1617" type="line"/>
      <point x="-181" y="1453" type="line"/>
      <point x="-181" y="1418" type="line"/>
      <point x="-17" y="1253" type="line"/>
      <point x="21" y="1253" type="line"/>
      <point x="192" y="1418" type="line"/>
      <point x="192" y="1453" type="line"/>
      <point x="21" y="1617" type="line"/>
    </contour>
  </outline>
</glyph>
<glyph name="uni0308.cap" format="1">
  <outline>
    <contour>
      <point x="-212" y="1618" type="line"/>
      <point x="-358" y="1472" type="line"/>
      <point x="-358" y="1441" type="line"/>
      <point x="-212" y="1295" type="line"/>
      <point x="-179" y="1295" type="line"/>
      <point x="-27" y="1441" type="line"/>
      <point x="-27" y="1472" type="line"/>
      <point x="-179" y="1618" type="line"/>
    </contour>
    <contour>
      <point x="173" y="1618" type="line"/>
      <point x="27" y="1472" type="line"/>
      <point x="27" y="1441" type="line"/>
      <point x="173" y="1295" type="line"/>
      <point x="207" y="1295" type="line"/>
      <point x="359" y="1441" type="line"/>
      <point x="359" y="1472" type="line"/>
      <point x="207" y="1618" type="line"/>
    </contour>
  </outline>
</glyph>
<glyph name="uni030A.cap" format="1">
  <outline>
    <contour>
      <point x="218" y="1527" type="curve" smooth="yes"/>
      <point x="218" y="1647"/>
      <point x="120" y="1745"/>
      <point x="0" y="1745" type="curve" smooth="yes"/>
      <point x="-120" y="1745"/>
      <point x="-218" y="1647"/>
      <point x="-218" y="1527" type="curve" smooth="yes"/>
      <point x="-218" y="1407"/>
      <point x="-118" y="1310"/>
      <point x="0" y="1310" type="curve" smooth="yes"/>
      <point x="118" y="1310"/>
      <point x="218" y="1407"/>
    </contour>
    <contour>
      <point x="114" y="1527" type="curve" smooth="yes"/>
      <point x="114" y="1466"/>
      <point x="65" y="1413"/>
      <point x="0" y="1413" type="curve" smooth="yes"/>
      <point x="-63" y="1413"/>
      <point x="-114" y="1464"/>
      <point x="-114" y="1527" type="curve" smooth="yes"/>
      <point x="-114" y="1588"/>
      <point x="-64" y="1643"/>
      <point x="0" y="1643" type="curve" smooth="yes"/>
      <point x="61" y="1643"/>
      <point x="114" y="1588"/>
    </contour>
  </outline>
</glyph>
<glyph name="uni030F.cap" format="1">
  <outline>
    <contour>
      <point x="-187" y="1618" type="line"/>
      <point x="-410" y="1618" type="line"/>
      <point x="-171" y="1290" type="line"/>
      <point x="-37" y="1290" type="line"/>
    </contour>
    <contour>
      <point x="101" y="1618" type="line"/>
      <point x="-122" y="1618" type="line"/>
      <point x="77" y="1290" type="line"/>
      <point x="211" y="1290" type="line"/>
    </contour>
  </outline>
</glyph>
<glyph name="uni0323" format="1">
  <outline>
    <contour>
      <point x="-22" y="-90" type="line"/>
      <point x="-186" y="-254" type="line"/>
      <point x="-186" y="-289" type="line"/>
      <point x="-22" y="-454" type="line"/>
      <point x="16" y="-454" type="line"/>
      <point x="187" y="-289" type="line"/>
      <point x="187" y="-254" type="line"/>
      <point x="16" y="-90" type="line"/>
    </contour>
  </outline>
</glyph>
<glyph name="zero.dnom" format="1">
  <advance width="838"/>
  <outline>
    <contour>
      <point x="400" y="-135" type="curve" smooth="yes"/>
      <point x="731" y="-135"/>
      <point x="815" y="23"/>
      <point x="815" y="289" type="curve" smooth="yes"/>
      <point x="815" y="536"/>
      <point x="754" y="714"/>
      <point x="436" y="714" type="curve" smooth="yes"/>
      <point x="104" y="714"/>
      <point x="22" y="551"/>
      <point x="22" y="287" type="curve" smooth="yes"/>
      <point x="22" y="39"/>
      <point x="84" y="-135"/>
    </contour>
    <contour>
      <point x="417" y="-10" type="curve" smooth="yes"/>
      <point x="350" y="-10"/>
      <point x="317" y="40"/>
      <point x="317" y="197" type="curve" smooth="yes"/>
      <point x="317" y="373" type="line" smooth="yes"/>
      <point x="317" y="544"/>
      <point x="350" y="595"/>
      <point x="417" y="595" type="curve" smooth="yes"/>
      <point x="487" y="595"/>
      <point x="521" y="526"/>
      <point x="521" y="397" type="curve" smooth="yes"/>
      <point x="521" y="229" type="line" smooth="yes"/>
      <point x="521" y="21"/>
      <point x="487" y="-10"/>
    </contour>
  </outline>
</glyph>
